<svg width="575" height="244" viewBox="0 0 575 244" fill="none" xmlns="http://www.w3.org/2000/svg">
<mask id="mask0_10_1203" style="mask-type:alpha" maskUnits="userSpaceOnUse" x="0" y="0" width="575" height="244">
<rect width="575" height="244" fill="black"/>
</mask>
<g mask="url(#mask0_10_1203)">
<path d="M2.05357 184.017L36.9669 139.766C40.9615 134.703 47.1525 131.877 53.5947 132.176L90.3003 133.878L132.15 137.624C137.32 138.087 142.467 136.522 146.504 133.26L199.424 90.4975C204.453 86.4333 211.96 88.1393 214.738 93.9782L246.399 160.505C249.444 166.901 255.644 171.21 262.701 171.833L305.592 175.617C312.876 176.26 319.931 172.876 323.989 166.791L346.163 133.54C351.399 125.689 361.41 122.566 370.181 126.048L392.662 134.971C404.045 139.49 416.778 132.809 419.529 120.875L429.756 76.5173C431.7 68.0879 438.842 61.8634 447.458 61.0905L492.343 57.0639C494.934 56.8315 497.455 56.0959 499.764 54.8983L558.571 24.4" stroke="#A8C5DA" stroke-linecap="round" stroke-dasharray="2 4"/>
</g>
<mask id="mask1_10_1203" style="mask-type:alpha" maskUnits="userSpaceOnUse" x="0" y="0" width="575" height="244">
<rect width="575" height="244" fill="black"/>
</mask>
<g mask="url(#mask1_10_1203)">
<mask id="mask2_10_1203" style="mask-type:alpha" maskUnits="userSpaceOnUse" x="2" y="40" width="557" height="204">
<path d="M25.1425 132.91L2.05357 143.184V244H558.571V68.2293L523.965 73.1961C519.906 73.7786 516.124 75.5948 513.132 78.3986L491.518 98.651C483.644 106.029 471.337 105.83 463.705 98.2025L449.788 84.2941C440.282 74.7933 425.617 72.7742 413.897 79.3526L405.297 84.1797C397.562 88.5217 387.768 85.2385 384.213 77.1112L372.157 49.5534C367.403 38.6847 352.509 37.376 345.932 47.2489C337.391 60.0689 322.248 66.8452 306.998 64.6709L293.641 62.7667C285.33 61.5816 277.163 65.7139 273.194 73.1124L247.921 120.228C244.049 127.445 236.169 131.572 228.032 130.645L196.629 127.066C183.925 125.619 171.294 130.332 162.644 139.747L160.938 141.604C148.645 154.985 132.163 163.782 114.204 166.548L103.96 168.126C99.0341 168.885 94.2933 170.557 89.9818 173.058L89.2549 173.479C78.9543 179.453 65.7481 175.159 60.931 164.269L51.5631 143.092C47.0878 132.976 35.2496 128.413 25.1425 132.91Z" fill="url(#paint0_radial_10_1203)"/>
</mask>
<g mask="url(#mask2_10_1203)">
<path opacity="0.6" d="M25.1425 132.91L2.05357 143.184V244H558.571V68.2293L523.965 73.1961C519.906 73.7786 516.124 75.5948 513.132 78.3986L491.518 98.651C483.643 106.029 471.337 105.83 463.705 98.2025L449.788 84.2941C440.282 74.7933 425.617 72.7742 413.897 79.3526L405.297 84.1797C397.562 88.5217 387.768 85.2385 384.213 77.1112L372.157 49.5534C367.403 38.6847 352.509 37.376 345.932 47.2489C337.391 60.0689 322.248 66.8452 306.998 64.6709L293.641 62.7667C285.33 61.5816 277.163 65.7139 273.194 73.1124L247.921 120.228C244.049 127.445 236.169 131.572 228.032 130.645L196.629 127.066C183.925 125.619 171.294 130.332 162.644 139.747L160.938 141.604C148.645 154.985 132.163 163.782 114.204 166.548L103.96 168.126C99.0341 168.885 94.2933 170.557 89.9818 173.058L89.2549 173.479C78.9543 179.453 65.7481 175.159 60.931 164.269L51.5631 143.092C47.0878 132.976 35.2496 128.413 25.1425 132.91Z" fill="#1C1C1C"/>
</g>
<path d="M2.05357 142.698L15.2037 136.871C24.5132 132.746 29.168 130.683 33.5235 130.735C38.3216 130.791 42.9395 132.571 46.5345 135.749C49.798 138.634 51.8648 143.287 55.9982 152.593L60.6549 163.076C60.9074 163.645 61.0337 163.929 61.1433 164.16C66.0678 174.525 78.6851 178.629 88.7652 173.146C88.9896 173.024 89.259 172.868 89.7976 172.557V172.557C89.9952 172.443 90.094 172.386 90.1924 172.33C94.3765 169.944 98.957 168.335 103.713 167.577C103.825 167.56 103.938 167.542 104.163 167.508L112.811 166.181C114.246 165.961 114.964 165.851 115.661 165.732C132.576 162.83 148.11 154.565 159.968 142.158C160.457 141.647 160.949 141.113 161.934 140.046V140.046C162.638 139.283 162.99 138.901 163.333 138.547C171.725 129.888 183.575 125.477 195.587 126.541C196.078 126.585 196.594 126.643 197.626 126.76L219.995 129.299C227.763 130.18 231.647 130.621 235.148 129.75C238.241 128.98 241.106 127.482 243.503 125.381C246.215 123.002 248.069 119.561 251.777 112.677L270.89 77.1911C273.094 73.0983 274.197 71.0519 275.575 69.4347C279.056 65.3498 284.032 62.8354 289.386 62.4566C291.505 62.3066 293.807 62.6334 298.409 63.2869L307.049 64.5138C307.063 64.5157 307.069 64.5166 307.075 64.5175C322.284 66.6722 337.383 59.9278 345.927 47.1632C345.93 47.158 345.934 47.1525 345.941 47.1414V47.1414C345.949 47.1306 345.952 47.1253 345.955 47.1216C352.539 37.2904 367.382 38.5976 372.147 49.4283C372.149 49.4324 372.152 49.4383 372.157 49.4502L382.523 73.0481C384.076 76.5856 384.853 78.3543 385.788 79.6476C389.55 84.8521 396.207 87.0848 402.346 85.2008C403.871 84.7326 405.558 83.79 408.93 81.9048V81.9048C413.719 79.2277 416.114 77.8892 418.439 77.0525C427.69 73.725 437.984 75.1406 445.992 80.8418C448.006 82.2753 449.95 84.2106 453.839 88.081L457.306 91.5318C463.314 97.5122 466.318 100.502 469.645 101.997C474.654 104.248 480.367 104.34 485.446 102.252C488.82 100.865 491.919 97.9733 498.117 92.1897L510.379 80.7476C513.109 78.1996 514.474 76.9256 516.018 75.94C517.388 75.0653 518.86 74.3609 520.401 73.8424C522.137 73.2581 523.985 72.9939 527.682 72.4655L558.571 68.0502" stroke="url(#paint1_linear_10_1203)" stroke-linecap="round"/>
<path d="M2.05357 142.698L15.2037 136.871C24.5132 132.746 29.168 130.683 33.5235 130.735C38.3216 130.791 42.9395 132.571 46.5345 135.749C49.798 138.634 51.8648 143.287 55.9982 152.593L60.6549 163.076C60.9074 163.645 61.0337 163.929 61.1433 164.16C66.0678 174.525 78.6851 178.629 88.7652 173.146C88.9896 173.024 89.259 172.868 89.7976 172.557V172.557C89.9952 172.443 90.094 172.386 90.1924 172.33C94.3765 169.944 98.957 168.335 103.713 167.577C103.825 167.56 103.938 167.542 104.163 167.508L112.811 166.181C114.246 165.961 114.964 165.851 115.661 165.732C132.576 162.83 148.11 154.565 159.968 142.158C160.457 141.647 160.949 141.113 161.934 140.046V140.046C162.638 139.283 162.99 138.901 163.333 138.547C171.725 129.888 183.575 125.477 195.587 126.541C196.078 126.585 196.594 126.643 197.626 126.76L219.995 129.299C227.763 130.18 231.647 130.621 235.148 129.75C238.241 128.98 241.106 127.482 243.503 125.381C246.215 123.002 248.069 119.561 251.777 112.677L270.89 77.1911C273.094 73.0983 274.197 71.0519 275.575 69.4347C279.056 65.3498 284.032 62.8354 289.386 62.4566C291.505 62.3066 293.807 62.6334 298.409 63.2869L307.049 64.5138C307.063 64.5157 307.069 64.5166 307.075 64.5175C322.284 66.6722 337.383 59.9278 345.927 47.1632C345.93 47.158 345.934 47.1525 345.941 47.1414V47.1414C345.949 47.1306 345.952 47.1253 345.955 47.1216C352.539 37.2904 367.382 38.5976 372.147 49.4283C372.149 49.4324 372.152 49.4383 372.157 49.4502L382.523 73.0481C384.076 76.5856 384.853 78.3543 385.788 79.6476C389.55 84.8521 396.207 87.0848 402.346 85.2008C403.871 84.7326 405.558 83.79 408.93 81.9048V81.9048C413.719 79.2277 416.114 77.8892 418.439 77.0525C427.69 73.725 437.984 75.1406 445.992 80.8418C448.006 82.2753 449.95 84.2106 453.839 88.081L457.306 91.5318C463.314 97.5122 466.318 100.502 469.645 101.997C474.654 104.248 480.367 104.34 485.446 102.252C488.82 100.865 491.919 97.9733 498.117 92.1897L510.379 80.7476C513.109 78.1996 514.474 76.9256 516.018 75.94C517.388 75.0653 518.86 74.3609 520.401 73.8424C522.137 73.2581 523.985 72.9939 527.682 72.4655L558.571 68.0502" stroke="#1C1C1C" stroke-linecap="round" style="mix-blend-mode:screen"/>
</g>
<defs>
<radialGradient id="paint0_radial_10_1203" cx="0" cy="0" r="1" gradientUnits="userSpaceOnUse" gradientTransform="translate(280.312 64.739) rotate(90) scale(119.495 273.042)">
<stop stop-opacity="0.08"/>
<stop offset="1" stop-opacity="0"/>
</radialGradient>
<linearGradient id="paint1_linear_10_1203" x1="4.67689" y1="202.035" x2="558.571" y2="202.035" gradientUnits="userSpaceOnUse">
<stop stop-opacity="0.4"/>
<stop offset="1"/>
</linearGradient>
</defs>
</svg>
