<!-- <svg width="789" height="196" viewBox="0 0 789 196" fill="none" xmlns="http://www.w3.org/2000/svg">
<path d="M18.875 96.8C18.875 92.3196 18.875 90.0794 19.7469 88.3681C20.5139 86.8628 21.7378 85.6389 23.2431 84.8719C24.9544 84 27.1946 84 31.675 84H34.075C38.5554 84 40.7956 84 42.5069 84.8719C44.0122 85.6389 45.2361 86.8628 46.0031 88.3681C46.875 90.0794 46.875 92.3196 46.875 96.8V105H18.875V96.8Z" fill="#95A4FC"/>
<rect x="18.875" y="105" width="28" height="21" fill="#95A4FC"/>
<rect x="18.875" y="126" width="28" height="21" fill="#95A4FC"/>
<path d="M18.875 147H46.875V155.2C46.875 159.68 46.875 161.921 46.0031 163.632C45.2361 165.137 44.0122 166.361 42.5069 167.128C40.7956 168 38.5554 168 34.075 168H31.675C27.1946 168 24.9544 168 23.2431 167.128C21.7378 166.361 20.5139 165.137 19.7469 163.632C18.875 161.921 18.875 159.68 18.875 155.2V147Z" fill="#95A4FC"/>
<path d="M84.625 33.8C84.625 29.3196 84.625 27.0794 85.4969 25.3681C86.2639 23.8628 87.4878 22.6389 88.9931 21.8719C90.7044 21 92.9446 21 97.425 21H99.825C104.305 21 106.546 21 108.257 21.8719C109.762 22.6389 110.986 23.8628 111.753 25.3681C112.625 27.0794 112.625 29.3196 112.625 33.8V42H84.625V33.8Z" fill="#BAEDBD"/>
<rect x="84.625" y="42" width="28" height="21" fill="#BAEDBD"/>
<rect x="84.625" y="63" width="28" height="21" fill="#BAEDBD"/>
<rect x="84.625" y="84" width="28" height="21" fill="#BAEDBD"/>
<rect x="84.625" y="105" width="28" height="21" fill="#BAEDBD"/>
<rect x="84.625" y="126" width="28" height="21" fill="#BAEDBD"/>
<path d="M84.625 147H112.625V155.2C112.625 159.68 112.625 161.921 111.753 163.632C110.986 165.137 109.762 166.361 108.257 167.128C106.546 168 104.305 168 99.825 168H97.425C92.9446 168 90.7044 168 88.9931 167.128C87.4878 166.361 86.2639 165.137 85.4969 163.632C84.625 161.921 84.625 159.68 84.625 155.2V147Z" fill="#BAEDBD"/>
<path d="M150.375 75.8C150.375 71.3196 150.375 69.0794 151.247 67.3681C152.014 65.8628 153.238 64.6389 154.743 63.8719C156.454 63 158.695 63 163.175 63H165.575C170.055 63 172.296 63 174.007 63.8719C175.512 64.6389 176.736 65.8628 177.503 67.3681C178.375 69.0794 178.375 71.3196 178.375 75.8V84H150.375V75.8Z" fill="#1C1C1C"/>
<rect x="150.375" y="84" width="28" height="21" fill="#1C1C1C"/>
<rect x="150.375" y="105" width="28" height="21" fill="#1C1C1C"/>
<rect x="150.375" y="126" width="28" height="21" fill="#1C1C1C"/>
<path d="M150.375 147H178.375V155.2C178.375 159.68 178.375 161.921 177.503 163.632C176.736 165.137 175.512 166.361 174.007 167.128C172.296 168 170.055 168 165.575 168H163.175C158.695 168 156.454 168 154.743 167.128C153.238 166.361 152.014 165.137 151.247 163.632C150.375 161.921 150.375 159.68 150.375 155.2V147Z" fill="#1C1C1C"/>
<path d="M216.125 28.8C216.125 24.3196 216.125 22.0794 216.997 20.3681C217.764 18.8628 218.988 17.6389 220.493 16.8719C222.204 16 224.445 16 228.925 16H231.325C235.805 16 238.046 16 239.757 16.8719C241.262 17.6389 242.486 18.8628 243.253 20.3681C244.125 22.0794 244.125 24.3196 244.125 28.8V35H216.125V28.8Z" fill="#B1E3FF"/>
<rect x="216.125" y="35" width="28" height="19" fill="#B1E3FF"/>
<rect x="216.125" y="54" width="28" height="19" fill="#B1E3FF"/>
<rect x="216.125" y="73" width="28" height="19" fill="#B1E3FF"/>
<rect x="216.125" y="92" width="28" height="19" fill="#B1E3FF"/>
<rect x="216.125" y="111" width="28" height="19" fill="#B1E3FF"/>
<rect x="216.125" y="130" width="28" height="19" fill="#B1E3FF"/>
<path d="M216.125 149H244.125V155.2C244.125 159.68 244.125 161.921 243.253 163.632C242.486 165.137 241.262 166.361 239.757 167.128C238.046 168 235.805 168 231.325 168H228.925C224.445 168 222.204 168 220.493 167.128C218.988 166.361 217.764 165.137 216.997 163.632C216.125 161.921 216.125 159.68 216.125 155.2V149Z" fill="#B1E3FF"/>
<path d="M281.875 117.8C281.875 113.32 281.875 111.079 282.747 109.368C283.514 107.863 284.738 106.639 286.243 105.872C287.954 105 290.195 105 294.675 105H297.075C301.555 105 303.796 105 305.507 105.872C307.012 106.639 308.236 107.863 309.003 109.368C309.875 111.079 309.875 113.32 309.875 117.8V126H281.875V117.8Z" fill="#A8C5DA"/>
<rect x="281.875" y="126" width="28" height="21" fill="#A8C5DA"/>
<path d="M281.875 147H309.875V155.2C309.875 159.68 309.875 161.921 309.003 163.632C308.236 165.137 307.012 166.361 305.507 167.128C303.796 168 301.555 168 297.075 168H294.675C290.195 168 287.954 168 286.243 167.128C284.738 166.361 283.514 165.137 282.747 163.632C281.875 161.921 281.875 159.68 281.875 155.2V147Z" fill="#A8C5DA"/>
<path d="M347.625 54.8C347.625 50.3196 347.625 48.0794 348.497 46.3681C349.264 44.8628 350.488 43.6389 351.993 42.8719C353.704 42 355.945 42 360.425 42H362.825C367.305 42 369.546 42 371.257 42.8719C372.762 43.6389 373.986 44.8628 374.753 46.3681C375.625 48.0794 375.625 50.3196 375.625 54.8V63H347.625V54.8Z" fill="#A1E3CB"/>
<rect x="347.625" y="63" width="28" height="21" fill="#A1E3CB"/>
<rect x="347.625" y="84" width="28" height="21" fill="#A1E3CB"/>
<rect x="347.625" y="105" width="28" height="21" fill="#A1E3CB"/>
<rect x="347.625" y="126" width="28" height="21" fill="#A1E3CB"/>
<path d="M347.625 147H375.625V155.2C375.625 159.68 375.625 161.921 374.753 163.632C373.986 165.137 372.762 166.361 371.257 167.128C369.546 168 367.305 168 362.825 168H360.425C355.945 168 353.704 168 351.993 167.128C350.488 166.361 349.264 165.137 348.497 163.632C347.625 161.921 347.625 159.68 347.625 155.2V147Z" fill="#A1E3CB"/>
<path d="M413.375 96.8C413.375 92.3196 413.375 90.0794 414.247 88.3681C415.014 86.8628 416.238 85.6389 417.743 84.8719C419.454 84 421.695 84 426.175 84H428.575C433.055 84 435.296 84 437.007 84.8719C438.512 85.6389 439.736 86.8628 440.503 88.3681C441.375 90.0794 441.375 92.3196 441.375 96.8V105H413.375V96.8Z" fill="#95A4FC"/>
<rect x="413.375" y="105" width="28" height="21" fill="#95A4FC"/>
<rect x="413.375" y="126" width="28" height="21" fill="#95A4FC"/>
<path d="M413.375 147H441.375V155.2C441.375 159.68 441.375 161.921 440.503 163.632C439.736 165.137 438.512 166.361 437.007 167.128C435.296 168 433.055 168 428.575 168H426.175C421.695 168 419.454 168 417.743 167.128C416.238 166.361 415.014 165.137 414.247 163.632C413.375 161.921 413.375 159.68 413.375 155.2V147Z" fill="#95A4FC"/>
<path d="M479.125 33.8C479.125 29.3196 479.125 27.0794 479.997 25.3681C480.764 23.8628 481.988 22.6389 483.493 21.8719C485.204 21 487.445 21 491.925 21H494.325C498.805 21 501.046 21 502.757 21.8719C504.262 22.6389 505.486 23.8628 506.253 25.3681C507.125 27.0794 507.125 29.3196 507.125 33.8V42H479.125V33.8Z" fill="#BAEDBD"/>
<rect x="479.125" y="42" width="28" height="21" fill="#BAEDBD"/>
<rect x="479.125" y="63" width="28" height="21" fill="#BAEDBD"/>
<rect x="479.125" y="84" width="28" height="21" fill="#BAEDBD"/>
<rect x="479.125" y="105" width="28" height="21" fill="#BAEDBD"/>
<rect x="479.125" y="126" width="28" height="21" fill="#BAEDBD"/>
<path d="M479.125 147H507.125V155.2C507.125 159.68 507.125 161.921 506.253 163.632C505.486 165.137 504.262 166.361 502.757 167.128C501.046 168 498.805 168 494.325 168H491.925C487.445 168 485.204 168 483.493 167.128C481.988 166.361 480.764 165.137 479.997 163.632C479.125 161.921 479.125 159.68 479.125 155.2V147Z" fill="#BAEDBD"/>
<path d="M544.875 75.8C544.875 71.3196 544.875 69.0794 545.747 67.3681C546.514 65.8628 547.738 64.6389 549.243 63.8719C550.954 63 553.195 63 557.675 63H560.075C564.555 63 566.796 63 568.507 63.8719C570.012 64.6389 571.236 65.8628 572.003 67.3681C572.875 69.0794 572.875 71.3196 572.875 75.8V84H544.875V75.8Z" fill="#1C1C1C"/>
<rect x="544.875" y="84" width="28" height="21" fill="#1C1C1C"/>
<rect x="544.875" y="105" width="28" height="21" fill="#1C1C1C"/>
<rect x="544.875" y="126" width="28" height="21" fill="#1C1C1C"/>
<path d="M544.875 147H572.875V155.2C572.875 159.68 572.875 161.921 572.003 163.632C571.236 165.137 570.012 166.361 568.507 167.128C566.796 168 564.555 168 560.075 168H557.675C553.195 168 550.954 168 549.243 167.128C547.738 166.361 546.514 165.137 545.747 163.632C544.875 161.921 544.875 159.68 544.875 155.2V147Z" fill="#1C1C1C"/>
<path d="M610.625 12.8C610.625 8.31958 610.625 6.07937 611.497 4.36808C612.264 2.86278 613.488 1.63893 614.993 0.871948C616.704 0 618.945 0 623.425 0H625.825C630.305 0 632.546 0 634.257 0.871948C635.762 1.63893 636.986 2.86278 637.753 4.36808C638.625 6.07937 638.625 8.31958 638.625 12.8V21H610.625V12.8Z" fill="#B1E3FF"/>
<rect x="610.625" y="21" width="28" height="21" fill="#B1E3FF"/>
<rect x="610.625" y="42" width="28" height="21" fill="#B1E3FF"/>
<rect x="610.625" y="63" width="28" height="21" fill="#B1E3FF"/>
<rect x="610.625" y="84" width="28" height="21" fill="#B1E3FF"/>
<rect x="610.625" y="105" width="28" height="21" fill="#B1E3FF"/>
<rect x="610.625" y="126" width="28" height="21" fill="#B1E3FF"/>
<path d="M610.625 147H638.625V155.2C638.625 159.68 638.625 161.921 637.753 163.632C636.986 165.137 635.762 166.361 634.257 167.128C632.546 168 630.305 168 625.825 168H623.425C618.945 168 616.704 168 614.993 167.128C613.488 166.361 612.264 165.137 611.497 163.632C610.625 161.921 610.625 159.68 610.625 155.2V147Z" fill="#B1E3FF"/>
<path d="M676.375 117.8C676.375 113.32 676.375 111.079 677.247 109.368C678.014 107.863 679.238 106.639 680.743 105.872C682.454 105 684.695 105 689.175 105H691.575C696.055 105 698.296 105 700.007 105.872C701.512 106.639 702.736 107.863 703.503 109.368C704.375 111.079 704.375 113.32 704.375 117.8V126H676.375V117.8Z" fill="#A8C5DA"/>
<rect x="676.375" y="126" width="28" height="21" fill="#A8C5DA"/>
<path d="M676.375 147H704.375V155.2C704.375 159.68 704.375 161.921 703.503 163.632C702.736 165.137 701.512 166.361 700.007 167.128C698.296 168 696.055 168 691.575 168H689.175C684.695 168 682.454 168 680.743 167.128C679.238 166.361 678.014 165.137 677.247 163.632C676.375 161.921 676.375 159.68 676.375 155.2V147Z" fill="#A8C5DA"/>
<path d="M742.125 54.8C742.125 50.3196 742.125 48.0794 742.997 46.3681C743.764 44.8628 744.988 43.6389 746.493 42.8719C748.204 42 750.445 42 754.925 42H757.325C761.805 42 764.046 42 765.757 42.8719C767.262 43.6389 768.486 44.8628 769.253 46.3681C770.125 48.0794 770.125 50.3196 770.125 54.8V63H742.125V54.8Z" fill="#A1E3CB"/>
<rect x="742.125" y="63" width="28" height="21" fill="#A1E3CB"/>
<rect x="742.125" y="84" width="28" height="21" fill="#A1E3CB"/>
<rect x="742.125" y="105" width="28" height="21" fill="#A1E3CB"/>
<rect x="742.125" y="126" width="28" height="21" fill="#A1E3CB"/>
<path d="M742.125 147H770.125V155.2C770.125 159.68 770.125 161.921 769.253 163.632C768.486 165.137 767.262 166.361 765.757 167.128C764.046 168 761.805 168 757.325 168H754.925C750.445 168 748.204 168 746.493 167.128C744.988 166.361 743.764 165.137 742.997 163.632C742.125 161.921 742.125 159.68 742.125 155.2V147Z" fill="#A1E3CB"/>
</svg> -->
<svg width="789" height="196" viewBox="0 0 789 196" fill="none" xmlns="http://www.w3.org/2000/svg">
<path d="M26.7786 182.273H27.8354V188.511C27.8354 189.068 27.7331 189.541 27.5286 189.93C27.324 190.32 27.0357 190.615 26.6635 190.817C26.2914 191.018 25.8525 191.119 25.3468 191.119C24.8695 191.119 24.4448 191.033 24.0726 190.859C23.7005 190.683 23.4078 190.433 23.1948 190.109C22.9817 189.786 22.8752 189.401 22.8752 188.955H23.915C23.915 189.202 23.976 189.418 24.0982 189.602C24.2232 189.784 24.3936 189.926 24.6096 190.028C24.8255 190.131 25.0712 190.182 25.3468 190.182C25.6507 190.182 25.9093 190.118 26.1223 189.99C26.3354 189.862 26.4973 189.675 26.6081 189.428C26.7218 189.178 26.7786 188.872 26.7786 188.511V182.273ZM32.2885 191.136C31.7431 191.136 31.2615 190.999 30.8439 190.723C30.4263 190.445 30.0996 190.053 29.8638 189.547C29.628 189.038 29.5101 188.438 29.5101 187.744C29.5101 187.057 29.628 186.46 29.8638 185.955C30.0996 185.449 30.4277 185.058 30.8482 184.783C31.2686 184.507 31.7544 184.369 32.3056 184.369C32.7317 184.369 33.0684 184.44 33.3155 184.582C33.5655 184.722 33.7559 184.881 33.8865 185.06C34.0201 185.236 34.1238 185.381 34.1976 185.494H34.2828V184.455H35.2885V191H34.3169V189.994H34.1976C34.1238 190.114 34.0186 190.264 33.8823 190.446C33.7459 190.625 33.5513 190.786 33.2985 190.928C33.0456 191.067 32.709 191.136 32.2885 191.136ZM32.4249 190.233C32.8283 190.233 33.1692 190.128 33.4476 189.918C33.726 189.705 33.9377 189.411 34.0826 189.036C34.2275 188.658 34.2999 188.222 34.2999 187.727C34.2999 187.239 34.2289 186.811 34.0868 186.445C33.9448 186.075 33.7346 185.788 33.4561 185.584C33.1777 185.376 32.834 185.273 32.4249 185.273C31.9988 185.273 31.6436 185.382 31.3596 185.601C31.0783 185.817 30.8667 186.111 30.7246 186.483C30.5854 186.852 30.5158 187.267 30.5158 187.727C30.5158 188.193 30.5868 188.616 30.7289 188.997C30.8738 189.375 31.0868 189.676 31.3681 189.901C31.6522 190.122 32.0044 190.233 32.4249 190.233ZM38.2757 187.062V191H37.2701V184.455H38.2417V185.477H38.3269C38.4803 185.145 38.7132 184.878 39.0257 184.676C39.3382 184.472 39.7417 184.369 40.236 184.369C40.6792 184.369 41.0669 184.46 41.3993 184.642C41.7317 184.821 41.9902 185.094 42.1749 185.46C42.3596 185.824 42.4519 186.284 42.4519 186.841V191H41.4462V186.909C41.4462 186.395 41.3127 185.994 41.0456 185.707C40.7786 185.418 40.4121 185.273 39.9462 185.273C39.6252 185.273 39.3382 185.342 39.0854 185.482C38.8354 185.621 38.638 185.824 38.4931 186.091C38.3482 186.358 38.2757 186.682 38.2757 187.062Z" fill="#1C1C1C" fill-opacity="0.4"/>
<path d="M89.1818 191V182.273H94.4148V183.21H90.2386V186.159H94.0227V187.097H90.2386V191H89.1818ZM98.3523 191.136C97.7216 191.136 97.1776 190.997 96.7202 190.719C96.2656 190.438 95.9148 190.045 95.6676 189.543C95.4233 189.037 95.3011 188.449 95.3011 187.778C95.3011 187.108 95.4233 186.517 95.6676 186.006C95.9148 185.491 96.2585 185.091 96.6989 184.804C97.142 184.514 97.6591 184.369 98.25 184.369C98.5909 184.369 98.9276 184.426 99.2599 184.54C99.5923 184.653 99.8949 184.838 100.168 185.094C100.44 185.347 100.658 185.682 100.82 186.099C100.982 186.517 101.062 187.031 101.062 187.642V188.068H96.017V187.199H100.04C100.04 186.83 99.9659 186.5 99.8182 186.21C99.6733 185.92 99.4659 185.692 99.196 185.524C98.929 185.357 98.6136 185.273 98.25 185.273C97.8494 185.273 97.5028 185.372 97.2102 185.571C96.9205 185.767 96.6974 186.023 96.5412 186.338C96.3849 186.653 96.3068 186.991 96.3068 187.352V187.932C96.3068 188.426 96.392 188.845 96.5625 189.189C96.7358 189.53 96.9759 189.79 97.2827 189.969C97.5895 190.145 97.946 190.233 98.3523 190.233C98.6165 190.233 98.8551 190.196 99.0682 190.122C99.2841 190.045 99.4702 189.932 99.6264 189.781C99.7827 189.628 99.9034 189.437 99.9886 189.21L100.96 189.483C100.858 189.812 100.686 190.102 100.445 190.352C100.203 190.599 99.9048 190.793 99.5497 190.932C99.1946 191.068 98.7955 191.136 98.3523 191.136ZM102.729 191V182.273H103.734V185.494H103.82C103.893 185.381 103.996 185.236 104.126 185.06C104.26 184.881 104.45 184.722 104.697 184.582C104.947 184.44 105.286 184.369 105.712 184.369C106.263 184.369 106.749 184.507 107.169 184.783C107.589 185.058 107.918 185.449 108.153 185.955C108.389 186.46 108.507 187.057 108.507 187.744C108.507 188.438 108.389 189.038 108.153 189.547C107.918 190.053 107.591 190.445 107.173 190.723C106.756 190.999 106.274 191.136 105.729 191.136C105.308 191.136 104.972 191.067 104.719 190.928C104.466 190.786 104.271 190.625 104.135 190.446C103.999 190.264 103.893 190.114 103.82 189.994H103.7V191H102.729ZM103.717 187.727C103.717 188.222 103.79 188.658 103.935 189.036C104.08 189.411 104.291 189.705 104.57 189.918C104.848 190.128 105.189 190.233 105.592 190.233C106.013 190.233 106.364 190.122 106.645 189.901C106.929 189.676 107.142 189.375 107.284 188.997C107.429 188.616 107.501 188.193 107.501 187.727C107.501 187.267 107.43 186.852 107.288 186.483C107.149 186.111 106.938 185.817 106.653 185.601C106.372 185.382 106.018 185.273 105.592 185.273C105.183 185.273 104.839 185.376 104.561 185.584C104.283 185.788 104.072 186.075 103.93 186.445C103.788 186.811 103.717 187.239 103.717 187.727Z" fill="#1C1C1C" fill-opacity="0.4"/>
<path d="M154.135 182.273H155.396L158.362 189.517H158.464L161.43 182.273H162.692V191H161.703V184.369H161.618L158.891 191H157.936L155.209 184.369H155.124V191H154.135V182.273ZM167.146 191.136C166.6 191.136 166.119 190.999 165.701 190.723C165.284 190.445 164.957 190.053 164.721 189.547C164.485 189.038 164.368 188.438 164.368 187.744C164.368 187.057 164.485 186.46 164.721 185.955C164.957 185.449 165.285 185.058 165.706 184.783C166.126 184.507 166.612 184.369 167.163 184.369C167.589 184.369 167.926 184.44 168.173 184.582C168.423 184.722 168.613 184.881 168.744 185.06C168.877 185.236 168.981 185.381 169.055 185.494H169.14V184.455H170.146V191H169.174V189.994H169.055C168.981 190.114 168.876 190.264 168.74 190.446C168.603 190.625 168.409 190.786 168.156 190.928C167.903 191.067 167.566 191.136 167.146 191.136ZM167.282 190.233C167.686 190.233 168.027 190.128 168.305 189.918C168.583 189.705 168.795 189.411 168.94 189.036C169.085 188.658 169.157 188.222 169.157 187.727C169.157 187.239 169.086 186.811 168.944 186.445C168.802 186.075 168.592 185.788 168.314 185.584C168.035 185.376 167.691 185.273 167.282 185.273C166.856 185.273 166.501 185.382 166.217 185.601C165.936 185.817 165.724 186.111 165.582 186.483C165.443 186.852 165.373 187.267 165.373 187.727C165.373 188.193 165.444 188.616 165.586 188.997C165.731 189.375 165.944 189.676 166.225 189.901C166.51 190.122 166.862 190.233 167.282 190.233ZM172.127 191V184.455H173.099V185.443H173.167C173.287 185.119 173.502 184.857 173.815 184.655C174.127 184.453 174.48 184.352 174.872 184.352C174.946 184.352 175.038 184.354 175.149 184.357C175.26 184.359 175.343 184.364 175.4 184.369V185.392C175.366 185.384 175.288 185.371 175.166 185.354C175.047 185.334 174.92 185.324 174.787 185.324C174.468 185.324 174.184 185.391 173.934 185.524C173.687 185.655 173.491 185.837 173.346 186.07C173.204 186.3 173.133 186.562 173.133 186.858V191H172.127Z" fill="#1C1C1C" fill-opacity="0.4"/>
<path d="M221.596 191H220.488L223.693 182.273H224.784L227.988 191H226.881L224.273 183.653H224.204L221.596 191ZM222.006 187.591H226.471V188.528H222.006V187.591ZM229.211 193.455V184.455H230.183V185.494H230.302C230.376 185.381 230.479 185.236 230.609 185.06C230.743 184.881 230.933 184.722 231.18 184.582C231.43 184.44 231.768 184.369 232.194 184.369C232.746 184.369 233.231 184.507 233.652 184.783C234.072 185.058 234.4 185.449 234.636 185.955C234.872 186.46 234.99 187.057 234.99 187.744C234.99 188.438 234.872 189.038 234.636 189.547C234.4 190.053 234.074 190.445 233.656 190.723C233.238 190.999 232.757 191.136 232.211 191.136C231.791 191.136 231.454 191.067 231.202 190.928C230.949 190.786 230.754 190.625 230.618 190.446C230.481 190.264 230.376 190.114 230.302 189.994H230.217V193.455H229.211ZM230.2 187.727C230.2 188.222 230.273 188.658 230.417 189.036C230.562 189.411 230.774 189.705 231.052 189.918C231.331 190.128 231.672 190.233 232.075 190.233C232.496 190.233 232.846 190.122 233.128 189.901C233.412 189.676 233.625 189.375 233.767 188.997C233.912 188.616 233.984 188.193 233.984 187.727C233.984 187.267 233.913 186.852 233.771 186.483C233.632 186.111 233.42 185.817 233.136 185.601C232.855 185.382 232.501 185.273 232.075 185.273C231.666 185.273 231.322 185.376 231.044 185.584C230.765 185.788 230.555 186.075 230.413 186.445C230.271 186.811 230.2 187.239 230.2 187.727ZM236.524 191V184.455H237.496V185.443H237.564C237.683 185.119 237.899 184.857 238.211 184.655C238.524 184.453 238.876 184.352 239.268 184.352C239.342 184.352 239.434 184.354 239.545 184.357C239.656 184.359 239.74 184.364 239.797 184.369V185.392C239.763 185.384 239.684 185.371 239.562 185.354C239.443 185.334 239.317 185.324 239.183 185.324C238.865 185.324 238.581 185.391 238.331 185.524C238.084 185.655 237.888 185.837 237.743 186.07C237.601 186.3 237.53 186.562 237.53 186.858V191H236.524Z" fill="#1C1C1C" fill-opacity="0.4"/>
<path d="M284.528 182.273H285.789L288.755 189.517H288.857L291.823 182.273H293.084V191H292.096V184.369H292.01L289.283 191H288.329L285.601 184.369H285.516V191H284.528V182.273ZM297.539 191.136C296.993 191.136 296.512 190.999 296.094 190.723C295.676 190.445 295.35 190.053 295.114 189.547C294.878 189.038 294.76 188.438 294.76 187.744C294.76 187.057 294.878 186.46 295.114 185.955C295.35 185.449 295.678 185.058 296.098 184.783C296.519 184.507 297.004 184.369 297.556 184.369C297.982 184.369 298.318 184.44 298.566 184.582C298.816 184.722 299.006 184.881 299.137 185.06C299.27 185.236 299.374 185.381 299.448 185.494H299.533V184.455H300.539V191H299.567V189.994H299.448C299.374 190.114 299.269 190.264 299.132 190.446C298.996 190.625 298.801 190.786 298.548 190.928C298.296 191.067 297.959 191.136 297.539 191.136ZM297.675 190.233C298.078 190.233 298.419 190.128 298.698 189.918C298.976 189.705 299.188 189.411 299.333 189.036C299.477 188.658 299.55 188.222 299.55 187.727C299.55 187.239 299.479 186.811 299.337 186.445C299.195 186.075 298.985 185.788 298.706 185.584C298.428 185.376 298.084 185.273 297.675 185.273C297.249 185.273 296.894 185.382 296.61 185.601C296.328 185.817 296.117 186.111 295.975 186.483C295.835 186.852 295.766 187.267 295.766 187.727C295.766 188.193 295.837 188.616 295.979 188.997C296.124 189.375 296.337 189.676 296.618 189.901C296.902 190.122 297.254 190.233 297.675 190.233ZM303.168 193.455C302.997 193.455 302.845 193.44 302.712 193.412C302.578 193.386 302.486 193.361 302.435 193.335L302.691 192.449C302.935 192.511 303.151 192.534 303.338 192.517C303.526 192.5 303.692 192.416 303.837 192.266C303.985 192.118 304.119 191.878 304.242 191.545L304.429 191.034L302.009 184.455H303.1L304.906 189.67H304.975L306.781 184.455H307.872L305.094 191.955C304.969 192.293 304.814 192.572 304.629 192.794C304.445 193.018 304.23 193.185 303.986 193.293C303.744 193.401 303.472 193.455 303.168 193.455Z" fill="#1C1C1C" fill-opacity="0.4"/>
<path d="M355.769 182.273H356.826V188.511C356.826 189.068 356.723 189.541 356.519 189.93C356.314 190.32 356.026 190.615 355.654 190.817C355.282 191.018 354.843 191.119 354.337 191.119C353.86 191.119 353.435 191.033 353.063 190.859C352.691 190.683 352.398 190.433 352.185 190.109C351.972 189.786 351.865 189.401 351.865 188.955H352.905C352.905 189.202 352.966 189.418 353.088 189.602C353.213 189.784 353.384 189.926 353.6 190.028C353.816 190.131 354.061 190.182 354.337 190.182C354.641 190.182 354.9 190.118 355.113 189.99C355.326 189.862 355.488 189.675 355.598 189.428C355.712 189.178 355.769 188.872 355.769 188.511V182.273ZM362.932 188.324V184.455H363.938V191H362.932V189.892H362.864C362.711 190.224 362.472 190.507 362.148 190.74C361.824 190.97 361.415 191.085 360.921 191.085C360.512 191.085 360.148 190.996 359.83 190.817C359.512 190.635 359.262 190.362 359.08 189.999C358.898 189.632 358.807 189.17 358.807 188.614V184.455H359.813V188.545C359.813 189.023 359.946 189.403 360.213 189.688C360.483 189.972 360.827 190.114 361.245 190.114C361.495 190.114 361.749 190.05 362.007 189.922C362.269 189.794 362.488 189.598 362.664 189.334C362.843 189.07 362.932 188.733 362.932 188.324ZM366.786 187.062V191H365.78V184.455H366.751V185.477H366.837C366.99 185.145 367.223 184.878 367.536 184.676C367.848 184.472 368.251 184.369 368.746 184.369C369.189 184.369 369.577 184.46 369.909 184.642C370.241 184.821 370.5 185.094 370.685 185.46C370.869 185.824 370.962 186.284 370.962 186.841V191H369.956V186.909C369.956 186.395 369.822 185.994 369.555 185.707C369.288 185.418 368.922 185.273 368.456 185.273C368.135 185.273 367.848 185.342 367.595 185.482C367.345 185.621 367.148 185.824 367.003 186.091C366.858 186.358 366.786 186.682 366.786 187.062Z" fill="#1C1C1C" fill-opacity="0.4"/>
<path d="M423.605 182.273H424.662V188.511C424.662 189.068 424.559 189.541 424.355 189.93C424.15 190.32 423.862 190.615 423.49 190.817C423.118 191.018 422.679 191.119 422.173 191.119C421.696 191.119 421.271 191.033 420.899 190.859C420.527 190.683 420.234 190.433 420.021 190.109C419.808 189.786 419.701 189.401 419.701 188.955H420.741C420.741 189.202 420.802 189.418 420.924 189.602C421.049 189.784 421.22 189.926 421.436 190.028C421.652 190.131 421.897 190.182 422.173 190.182C422.477 190.182 422.735 190.118 422.949 189.99C423.162 189.862 423.324 189.675 423.434 189.428C423.548 189.178 423.605 188.872 423.605 188.511V182.273ZM430.768 188.324V184.455H431.774V191H430.768V189.892H430.7C430.547 190.224 430.308 190.507 429.984 190.74C429.66 190.97 429.251 191.085 428.757 191.085C428.348 191.085 427.984 190.996 427.666 190.817C427.348 190.635 427.098 190.362 426.916 189.999C426.734 189.632 426.643 189.17 426.643 188.614V184.455H427.649V188.545C427.649 189.023 427.782 189.403 428.049 189.688C428.319 189.972 428.663 190.114 429.081 190.114C429.331 190.114 429.585 190.05 429.843 189.922C430.105 189.794 430.324 189.598 430.5 189.334C430.679 189.07 430.768 188.733 430.768 188.324ZM434.621 182.273V191H433.616V182.273H434.621Z" fill="#1C1C1C" fill-opacity="0.4"/>
<path d="M483.343 191H482.235L485.439 182.273H486.53L489.735 191H488.627L486.019 183.653H485.95L483.343 191ZM483.752 187.591H488.218V188.528H483.752V187.591ZM495.083 188.324V184.455H496.088V191H495.083V189.892H495.014C494.861 190.224 494.622 190.507 494.298 190.74C493.975 190.97 493.566 191.085 493.071 191.085C492.662 191.085 492.298 190.996 491.98 190.817C491.662 190.635 491.412 190.362 491.23 189.999C491.048 189.632 490.958 189.17 490.958 188.614V184.455H491.963V188.545C491.963 189.023 492.097 189.403 492.364 189.688C492.634 189.972 492.977 190.114 493.395 190.114C493.645 190.114 493.899 190.05 494.158 189.922C494.419 189.794 494.638 189.598 494.814 189.334C494.993 189.07 495.083 188.733 495.083 188.324ZM500.572 193.591C500.086 193.591 499.669 193.528 499.319 193.403C498.97 193.281 498.679 193.119 498.446 192.918C498.216 192.719 498.032 192.506 497.896 192.278L498.697 191.716C498.788 191.835 498.903 191.972 499.042 192.125C499.182 192.281 499.372 192.416 499.613 192.53C499.858 192.646 500.177 192.705 500.572 192.705C501.101 192.705 501.537 192.577 501.881 192.321C502.224 192.065 502.396 191.665 502.396 191.119V189.79H502.311C502.237 189.909 502.132 190.057 501.996 190.233C501.862 190.406 501.669 190.561 501.416 190.697C501.166 190.831 500.828 190.898 500.402 190.898C499.873 190.898 499.399 190.773 498.979 190.523C498.561 190.273 498.23 189.909 497.986 189.432C497.744 188.955 497.623 188.375 497.623 187.693C497.623 187.023 497.741 186.439 497.977 185.942C498.213 185.442 498.541 185.055 498.961 184.783C499.382 184.507 499.868 184.369 500.419 184.369C500.845 184.369 501.183 184.44 501.433 184.582C501.686 184.722 501.879 184.881 502.013 185.06C502.149 185.236 502.254 185.381 502.328 185.494H502.43V184.455H503.402V191.188C503.402 191.75 503.274 192.207 503.018 192.56C502.765 192.915 502.425 193.175 501.996 193.339C501.569 193.507 501.095 193.591 500.572 193.591ZM500.538 189.994C500.942 189.994 501.282 189.902 501.561 189.717C501.839 189.533 502.051 189.267 502.196 188.92C502.341 188.574 502.413 188.159 502.413 187.676C502.413 187.205 502.342 186.788 502.2 186.428C502.058 186.067 501.848 185.784 501.569 185.58C501.291 185.375 500.947 185.273 500.538 185.273C500.112 185.273 499.757 185.381 499.473 185.597C499.192 185.812 498.98 186.102 498.838 186.466C498.699 186.83 498.629 187.233 498.629 187.676C498.629 188.131 498.7 188.533 498.842 188.882C498.987 189.229 499.2 189.501 499.481 189.7C499.765 189.896 500.118 189.994 500.538 189.994Z" fill="#1C1C1C" fill-opacity="0.4"/>
<path d="M553.73 184.455C553.679 184.023 553.471 183.688 553.108 183.449C552.744 183.21 552.298 183.091 551.77 183.091C551.383 183.091 551.045 183.153 550.756 183.278C550.469 183.403 550.244 183.575 550.082 183.794C549.923 184.013 549.844 184.261 549.844 184.54C549.844 184.773 549.899 184.973 550.01 185.141C550.123 185.305 550.268 185.443 550.444 185.554C550.621 185.662 550.805 185.751 550.998 185.822C551.192 185.891 551.369 185.946 551.531 185.989L552.417 186.227C552.645 186.287 552.898 186.369 553.176 186.474C553.457 186.58 553.726 186.723 553.981 186.905C554.24 187.084 554.453 187.314 554.621 187.595C554.788 187.876 554.872 188.222 554.872 188.631C554.872 189.102 554.748 189.528 554.501 189.909C554.257 190.29 553.899 190.592 553.427 190.817C552.959 191.041 552.389 191.153 551.719 191.153C551.094 191.153 550.552 191.053 550.095 190.851C549.64 190.649 549.282 190.368 549.021 190.007C548.763 189.646 548.616 189.227 548.582 188.75H549.673C549.702 189.08 549.812 189.352 550.006 189.568C550.202 189.781 550.449 189.94 550.747 190.045C551.048 190.148 551.372 190.199 551.719 190.199C552.122 190.199 552.484 190.134 552.805 190.003C553.126 189.869 553.381 189.685 553.568 189.449C553.756 189.21 553.849 188.932 553.849 188.614C553.849 188.324 553.768 188.088 553.606 187.906C553.444 187.724 553.231 187.577 552.967 187.463C552.703 187.349 552.417 187.25 552.111 187.165L551.037 186.858C550.355 186.662 549.815 186.382 549.417 186.018C549.02 185.655 548.821 185.179 548.821 184.591C548.821 184.102 548.953 183.676 549.217 183.312C549.484 182.946 549.842 182.662 550.291 182.46C550.743 182.256 551.247 182.153 551.804 182.153C552.366 182.153 552.866 182.254 553.304 182.456C553.741 182.655 554.088 182.928 554.344 183.274C554.602 183.621 554.738 184.014 554.753 184.455H553.73ZM559.218 191.136C558.587 191.136 558.043 190.997 557.585 190.719C557.131 190.438 556.78 190.045 556.533 189.543C556.289 189.037 556.166 188.449 556.166 187.778C556.166 187.108 556.289 186.517 556.533 186.006C556.78 185.491 557.124 185.091 557.564 184.804C558.007 184.514 558.524 184.369 559.115 184.369C559.456 184.369 559.793 184.426 560.125 184.54C560.458 184.653 560.76 184.838 561.033 185.094C561.306 185.347 561.523 185.682 561.685 186.099C561.847 186.517 561.928 187.031 561.928 187.642V188.068H556.882V187.199H560.905C560.905 186.83 560.831 186.5 560.683 186.21C560.539 185.92 560.331 185.692 560.061 185.524C559.794 185.357 559.479 185.273 559.115 185.273C558.715 185.273 558.368 185.372 558.075 185.571C557.786 185.767 557.563 186.023 557.406 186.338C557.25 186.653 557.172 186.991 557.172 187.352V187.932C557.172 188.426 557.257 188.845 557.428 189.189C557.601 189.53 557.841 189.79 558.148 189.969C558.455 190.145 558.811 190.233 559.218 190.233C559.482 190.233 559.72 190.196 559.933 190.122C560.149 190.045 560.335 189.932 560.492 189.781C560.648 189.628 560.769 189.437 560.854 189.21L561.825 189.483C561.723 189.812 561.551 190.102 561.31 190.352C561.068 190.599 560.77 190.793 560.415 190.932C560.06 191.068 559.661 191.136 559.218 191.136ZM563.458 193.455V184.455H564.429V185.494H564.548C564.622 185.381 564.725 185.236 564.855 185.06C564.989 184.881 565.179 184.722 565.426 184.582C565.676 184.44 566.014 184.369 566.441 184.369C566.992 184.369 567.477 184.507 567.898 184.783C568.318 185.058 568.646 185.449 568.882 185.955C569.118 186.46 569.236 187.057 569.236 187.744C569.236 188.438 569.118 189.038 568.882 189.547C568.646 190.053 568.32 190.445 567.902 190.723C567.485 190.999 567.003 191.136 566.458 191.136C566.037 191.136 565.7 191.067 565.448 190.928C565.195 190.786 565 190.625 564.864 190.446C564.727 190.264 564.622 190.114 564.548 189.994H564.463V193.455H563.458ZM564.446 187.727C564.446 188.222 564.519 188.658 564.664 189.036C564.808 189.411 565.02 189.705 565.298 189.918C565.577 190.128 565.918 190.233 566.321 190.233C566.742 190.233 567.093 190.122 567.374 189.901C567.658 189.676 567.871 189.375 568.013 188.997C568.158 188.616 568.23 188.193 568.23 187.727C568.23 187.267 568.159 186.852 568.017 186.483C567.878 186.111 567.666 185.817 567.382 185.601C567.101 185.382 566.747 185.273 566.321 185.273C565.912 185.273 565.568 185.376 565.29 185.584C565.012 185.788 564.801 186.075 564.659 186.445C564.517 186.811 564.446 187.239 564.446 187.727Z" fill="#1C1C1C" fill-opacity="0.4"/>
<path d="M622.944 186.636C622.944 187.557 622.778 188.352 622.445 189.023C622.113 189.693 621.657 190.21 621.077 190.574C620.498 190.938 619.836 191.119 619.092 191.119C618.347 191.119 617.685 190.938 617.106 190.574C616.526 190.21 616.07 189.693 615.738 189.023C615.406 188.352 615.239 187.557 615.239 186.636C615.239 185.716 615.406 184.92 615.738 184.25C616.07 183.58 616.526 183.062 617.106 182.699C617.685 182.335 618.347 182.153 619.092 182.153C619.836 182.153 620.498 182.335 621.077 182.699C621.657 183.062 622.113 183.58 622.445 184.25C622.778 184.92 622.944 185.716 622.944 186.636ZM621.921 186.636C621.921 185.881 621.795 185.243 621.542 184.723C621.292 184.203 620.952 183.81 620.523 183.543C620.097 183.276 619.62 183.142 619.092 183.142C618.563 183.142 618.085 183.276 617.656 183.543C617.229 183.81 616.89 184.203 616.637 184.723C616.387 185.243 616.262 185.881 616.262 186.636C616.262 187.392 616.387 188.03 616.637 188.55C616.89 189.07 617.229 189.463 617.656 189.73C618.085 189.997 618.563 190.131 619.092 190.131C619.62 190.131 620.097 189.997 620.523 189.73C620.952 189.463 621.292 189.07 621.542 188.55C621.795 188.03 621.921 187.392 621.921 186.636ZM627.244 191.136C626.63 191.136 626.102 190.991 625.658 190.702C625.215 190.412 624.874 190.013 624.636 189.504C624.397 188.996 624.278 188.415 624.278 187.761C624.278 187.097 624.4 186.51 624.644 186.001C624.891 185.49 625.235 185.091 625.675 184.804C626.119 184.514 626.636 184.369 627.227 184.369C627.687 184.369 628.102 184.455 628.471 184.625C628.84 184.795 629.143 185.034 629.379 185.341C629.614 185.648 629.761 186.006 629.817 186.415H628.812C628.735 186.116 628.565 185.852 628.3 185.622C628.039 185.389 627.687 185.273 627.244 185.273C626.852 185.273 626.508 185.375 626.212 185.58C625.92 185.781 625.691 186.067 625.526 186.436C625.364 186.803 625.283 187.233 625.283 187.727C625.283 188.233 625.363 188.673 625.522 189.048C625.684 189.423 625.911 189.714 626.204 189.922C626.499 190.129 626.846 190.233 627.244 190.233C627.505 190.233 627.742 190.188 627.955 190.097C628.168 190.006 628.349 189.875 628.496 189.705C628.644 189.534 628.749 189.33 628.812 189.091H629.817C629.761 189.477 629.62 189.825 629.396 190.135C629.174 190.442 628.88 190.686 628.513 190.868C628.15 191.047 627.727 191.136 627.244 191.136ZM634.134 184.455V185.307H630.742V184.455H634.134ZM631.731 182.886H632.737V189.125C632.737 189.409 632.778 189.622 632.86 189.764C632.945 189.903 633.053 189.997 633.184 190.045C633.317 190.091 633.458 190.114 633.606 190.114C633.717 190.114 633.808 190.108 633.879 190.097C633.95 190.082 634.006 190.071 634.049 190.062L634.254 190.966C634.185 190.991 634.09 191.017 633.968 191.043C633.846 191.071 633.691 191.085 633.504 191.085C633.219 191.085 632.941 191.024 632.668 190.902C632.398 190.78 632.174 190.594 631.995 190.344C631.819 190.094 631.731 189.778 631.731 189.398V182.886Z" fill="#1C1C1C" fill-opacity="0.4"/>
<path d="M687.032 182.273V191H686.009L681.254 184.148H681.168V191H680.112V182.273H681.134L685.907 189.142H685.992V182.273H687.032ZM691.669 191.136C691.078 191.136 690.56 190.996 690.114 190.714C689.671 190.433 689.324 190.04 689.074 189.534C688.827 189.028 688.703 188.437 688.703 187.761C688.703 187.08 688.827 186.484 689.074 185.976C689.324 185.467 689.671 185.072 690.114 184.791C690.56 184.51 691.078 184.369 691.669 184.369C692.26 184.369 692.777 184.51 693.221 184.791C693.667 185.072 694.013 185.467 694.26 185.976C694.51 186.484 694.635 187.08 694.635 187.761C694.635 188.437 694.51 189.028 694.26 189.534C694.013 190.04 693.667 190.433 693.221 190.714C692.777 190.996 692.26 191.136 691.669 191.136ZM691.669 190.233C692.118 190.233 692.488 190.118 692.777 189.888C693.067 189.658 693.282 189.355 693.421 188.98C693.56 188.605 693.63 188.199 693.63 187.761C693.63 187.324 693.56 186.916 693.421 186.538C693.282 186.161 693.067 185.855 692.777 185.622C692.488 185.389 692.118 185.273 691.669 185.273C691.221 185.273 690.851 185.389 690.561 185.622C690.272 185.855 690.057 186.161 689.918 186.538C689.779 186.916 689.709 187.324 689.709 187.761C689.709 188.199 689.779 188.605 689.918 188.98C690.057 189.355 690.272 189.658 690.561 189.888C690.851 190.118 691.221 190.233 691.669 190.233ZM701.288 184.455L698.868 191H697.845L695.425 184.455H696.516L698.322 189.67H698.391L700.197 184.455H701.288Z" fill="#1C1C1C" fill-opacity="0.4"/>
<path d="M748.719 191H746.026V182.273H748.838C749.685 182.273 750.409 182.447 751.011 182.797C751.614 183.143 752.075 183.642 752.396 184.293C752.717 184.94 752.878 185.716 752.878 186.619C752.878 187.528 752.716 188.311 752.392 188.967C752.068 189.621 751.597 190.124 750.977 190.476C750.358 190.825 749.605 191 748.719 191ZM747.082 190.062H748.651C749.372 190.062 749.97 189.923 750.445 189.645C750.919 189.366 751.273 188.97 751.506 188.456C751.739 187.942 751.855 187.33 751.855 186.619C751.855 185.915 751.74 185.308 751.51 184.8C751.28 184.288 750.936 183.896 750.479 183.624C750.021 183.348 749.452 183.21 748.77 183.21H747.082V190.062ZM757.259 191.136C756.628 191.136 756.084 190.997 755.626 190.719C755.172 190.438 754.821 190.045 754.574 189.543C754.33 189.037 754.207 188.449 754.207 187.778C754.207 187.108 754.33 186.517 754.574 186.006C754.821 185.491 755.165 185.091 755.605 184.804C756.048 184.514 756.565 184.369 757.156 184.369C757.497 184.369 757.834 184.426 758.166 184.54C758.499 184.653 758.801 184.838 759.074 185.094C759.347 185.347 759.564 185.682 759.726 186.099C759.888 186.517 759.969 187.031 759.969 187.642V188.068H754.923V187.199H758.946C758.946 186.83 758.872 186.5 758.724 186.21C758.58 185.92 758.372 185.692 758.102 185.524C757.835 185.357 757.52 185.273 757.156 185.273C756.756 185.273 756.409 185.372 756.116 185.571C755.827 185.767 755.604 186.023 755.447 186.338C755.291 186.653 755.213 186.991 755.213 187.352V187.932C755.213 188.426 755.298 188.845 755.469 189.189C755.642 189.53 755.882 189.79 756.189 189.969C756.496 190.145 756.852 190.233 757.259 190.233C757.523 190.233 757.761 190.196 757.974 190.122C758.19 190.045 758.376 189.932 758.533 189.781C758.689 189.628 758.81 189.437 758.895 189.21L759.866 189.483C759.764 189.812 759.592 190.102 759.351 190.352C759.109 190.599 758.811 190.793 758.456 190.932C758.101 191.068 757.702 191.136 757.259 191.136ZM764.158 191.136C763.544 191.136 763.016 190.991 762.572 190.702C762.129 190.412 761.788 190.013 761.55 189.504C761.311 188.996 761.192 188.415 761.192 187.761C761.192 187.097 761.314 186.51 761.558 186.001C761.805 185.49 762.149 185.091 762.589 184.804C763.033 184.514 763.55 184.369 764.141 184.369C764.601 184.369 765.016 184.455 765.385 184.625C765.754 184.795 766.057 185.034 766.293 185.341C766.528 185.648 766.675 186.006 766.732 186.415H765.726C765.649 186.116 765.479 185.852 765.214 185.622C764.953 185.389 764.601 185.273 764.158 185.273C763.766 185.273 763.422 185.375 763.126 185.58C762.834 185.781 762.605 186.067 762.44 186.436C762.278 186.803 762.197 187.233 762.197 187.727C762.197 188.233 762.277 188.673 762.436 189.048C762.598 189.423 762.825 189.714 763.118 189.922C763.413 190.129 763.76 190.233 764.158 190.233C764.419 190.233 764.656 190.188 764.869 190.097C765.082 190.006 765.263 189.875 765.411 189.705C765.558 189.534 765.663 189.33 765.726 189.091H766.732C766.675 189.477 766.534 189.825 766.31 190.135C766.088 190.442 765.794 190.686 765.428 190.868C765.064 191.047 764.641 191.136 764.158 191.136Z" fill="#1C1C1C" fill-opacity="0.4"/>
<path d="M18.875 96.8C18.875 92.3196 18.875 90.0794 19.7469 88.3681C20.5139 86.8628 21.7378 85.6389 23.2431 84.8719C24.9544 84 27.1946 84 31.675 84H34.075C38.5554 84 40.7956 84 42.5069 84.8719C44.0122 85.6389 45.2361 86.8628 46.0031 88.3681C46.875 90.0794 46.875 92.3196 46.875 96.8V105H18.875V96.8Z" fill="#95A4FC"/>
<rect x="18.875" y="105" width="28" height="21" fill="#95A4FC"/>
<rect x="18.875" y="126" width="28" height="21" fill="#95A4FC"/>
<path d="M18.875 147H46.875V155.2C46.875 159.68 46.875 161.921 46.0031 163.632C45.2361 165.137 44.0122 166.361 42.5069 167.128C40.7956 168 38.5554 168 34.075 168H31.675C27.1946 168 24.9544 168 23.2431 167.128C21.7378 166.361 20.5139 165.137 19.7469 163.632C18.875 161.921 18.875 159.68 18.875 155.2V147Z" fill="#95A4FC"/>
<path d="M84.625 33.8C84.625 29.3196 84.625 27.0794 85.4969 25.3681C86.2639 23.8628 87.4878 22.6389 88.9931 21.8719C90.7044 21 92.9446 21 97.425 21H99.825C104.305 21 106.546 21 108.257 21.8719C109.762 22.6389 110.986 23.8628 111.753 25.3681C112.625 27.0794 112.625 29.3196 112.625 33.8V42H84.625V33.8Z" fill="#BAEDBD"/>
<rect x="84.625" y="42" width="28" height="21" fill="#BAEDBD"/>
<rect x="84.625" y="63" width="28" height="21" fill="#BAEDBD"/>
<rect x="84.625" y="84" width="28" height="21" fill="#BAEDBD"/>
<rect x="84.625" y="105" width="28" height="21" fill="#BAEDBD"/>
<rect x="84.625" y="126" width="28" height="21" fill="#BAEDBD"/>
<path d="M84.625 147H112.625V155.2C112.625 159.68 112.625 161.921 111.753 163.632C110.986 165.137 109.762 166.361 108.257 167.128C106.546 168 104.305 168 99.825 168H97.425C92.9446 168 90.7044 168 88.9931 167.128C87.4878 166.361 86.2639 165.137 85.4969 163.632C84.625 161.921 84.625 159.68 84.625 155.2V147Z" fill="#BAEDBD"/>
<path d="M150.375 75.8C150.375 71.3196 150.375 69.0794 151.247 67.3681C152.014 65.8628 153.238 64.6389 154.743 63.8719C156.454 63 158.695 63 163.175 63H165.575C170.055 63 172.296 63 174.007 63.8719C175.512 64.6389 176.736 65.8628 177.503 67.3681C178.375 69.0794 178.375 71.3196 178.375 75.8V84H150.375V75.8Z" fill="#1C1C1C"/>
<rect x="150.375" y="84" width="28" height="21" fill="#1C1C1C"/>
<rect x="150.375" y="105" width="28" height="21" fill="#1C1C1C"/>
<rect x="150.375" y="126" width="28" height="21" fill="#1C1C1C"/>
<path d="M150.375 147H178.375V155.2C178.375 159.68 178.375 161.921 177.503 163.632C176.736 165.137 175.512 166.361 174.007 167.128C172.296 168 170.055 168 165.575 168H163.175C158.695 168 156.454 168 154.743 167.128C153.238 166.361 152.014 165.137 151.247 163.632C150.375 161.921 150.375 159.68 150.375 155.2V147Z" fill="#1C1C1C"/>
<path d="M216.125 28.8C216.125 24.3196 216.125 22.0794 216.997 20.3681C217.764 18.8628 218.988 17.6389 220.493 16.8719C222.204 16 224.445 16 228.925 16H231.325C235.805 16 238.046 16 239.757 16.8719C241.262 17.6389 242.486 18.8628 243.253 20.3681C244.125 22.0794 244.125 24.3196 244.125 28.8V35H216.125V28.8Z" fill="#B1E3FF"/>
<rect x="216.125" y="35" width="28" height="19" fill="#B1E3FF"/>
<rect x="216.125" y="54" width="28" height="19" fill="#B1E3FF"/>
<rect x="216.125" y="73" width="28" height="19" fill="#B1E3FF"/>
<rect x="216.125" y="92" width="28" height="19" fill="#B1E3FF"/>
<rect x="216.125" y="111" width="28" height="19" fill="#B1E3FF"/>
<rect x="216.125" y="130" width="28" height="19" fill="#B1E3FF"/>
<path d="M216.125 149H244.125V155.2C244.125 159.68 244.125 161.921 243.253 163.632C242.486 165.137 241.262 166.361 239.757 167.128C238.046 168 235.805 168 231.325 168H228.925C224.445 168 222.204 168 220.493 167.128C218.988 166.361 217.764 165.137 216.997 163.632C216.125 161.921 216.125 159.68 216.125 155.2V149Z" fill="#B1E3FF"/>
<path d="M281.875 117.8C281.875 113.32 281.875 111.079 282.747 109.368C283.514 107.863 284.738 106.639 286.243 105.872C287.954 105 290.195 105 294.675 105H297.075C301.555 105 303.796 105 305.507 105.872C307.012 106.639 308.236 107.863 309.003 109.368C309.875 111.079 309.875 113.32 309.875 117.8V126H281.875V117.8Z" fill="#A8C5DA"/>
<rect x="281.875" y="126" width="28" height="21" fill="#A8C5DA"/>
<path d="M281.875 147H309.875V155.2C309.875 159.68 309.875 161.921 309.003 163.632C308.236 165.137 307.012 166.361 305.507 167.128C303.796 168 301.555 168 297.075 168H294.675C290.195 168 287.954 168 286.243 167.128C284.738 166.361 283.514 165.137 282.747 163.632C281.875 161.921 281.875 159.68 281.875 155.2V147Z" fill="#A8C5DA"/>
<path d="M347.625 54.8C347.625 50.3196 347.625 48.0794 348.497 46.3681C349.264 44.8628 350.488 43.6389 351.993 42.8719C353.704 42 355.945 42 360.425 42H362.825C367.305 42 369.546 42 371.257 42.8719C372.762 43.6389 373.986 44.8628 374.753 46.3681C375.625 48.0794 375.625 50.3196 375.625 54.8V63H347.625V54.8Z" fill="#A1E3CB"/>
<rect x="347.625" y="63" width="28" height="21" fill="#A1E3CB"/>
<rect x="347.625" y="84" width="28" height="21" fill="#A1E3CB"/>
<rect x="347.625" y="105" width="28" height="21" fill="#A1E3CB"/>
<rect x="347.625" y="126" width="28" height="21" fill="#A1E3CB"/>
<path d="M347.625 147H375.625V155.2C375.625 159.68 375.625 161.921 374.753 163.632C373.986 165.137 372.762 166.361 371.257 167.128C369.546 168 367.305 168 362.825 168H360.425C355.945 168 353.704 168 351.993 167.128C350.488 166.361 349.264 165.137 348.497 163.632C347.625 161.921 347.625 159.68 347.625 155.2V147Z" fill="#A1E3CB"/>
<path d="M413.375 96.8C413.375 92.3196 413.375 90.0794 414.247 88.3681C415.014 86.8628 416.238 85.6389 417.743 84.8719C419.454 84 421.695 84 426.175 84H428.575C433.055 84 435.296 84 437.007 84.8719C438.512 85.6389 439.736 86.8628 440.503 88.3681C441.375 90.0794 441.375 92.3196 441.375 96.8V105H413.375V96.8Z" fill="#95A4FC"/>
<rect x="413.375" y="105" width="28" height="21" fill="#95A4FC"/>
<rect x="413.375" y="126" width="28" height="21" fill="#95A4FC"/>
<path d="M413.375 147H441.375V155.2C441.375 159.68 441.375 161.921 440.503 163.632C439.736 165.137 438.512 166.361 437.007 167.128C435.296 168 433.055 168 428.575 168H426.175C421.695 168 419.454 168 417.743 167.128C416.238 166.361 415.014 165.137 414.247 163.632C413.375 161.921 413.375 159.68 413.375 155.2V147Z" fill="#95A4FC"/>
<path d="M479.125 33.8C479.125 29.3196 479.125 27.0794 479.997 25.3681C480.764 23.8628 481.988 22.6389 483.493 21.8719C485.204 21 487.445 21 491.925 21H494.325C498.805 21 501.046 21 502.757 21.8719C504.262 22.6389 505.486 23.8628 506.253 25.3681C507.125 27.0794 507.125 29.3196 507.125 33.8V42H479.125V33.8Z" fill="#BAEDBD"/>
<rect x="479.125" y="42" width="28" height="21" fill="#BAEDBD"/>
<rect x="479.125" y="63" width="28" height="21" fill="#BAEDBD"/>
<rect x="479.125" y="84" width="28" height="21" fill="#BAEDBD"/>
<rect x="479.125" y="105" width="28" height="21" fill="#BAEDBD"/>
<rect x="479.125" y="126" width="28" height="21" fill="#BAEDBD"/>
<path d="M479.125 147H507.125V155.2C507.125 159.68 507.125 161.921 506.253 163.632C505.486 165.137 504.262 166.361 502.757 167.128C501.046 168 498.805 168 494.325 168H491.925C487.445 168 485.204 168 483.493 167.128C481.988 166.361 480.764 165.137 479.997 163.632C479.125 161.921 479.125 159.68 479.125 155.2V147Z" fill="#BAEDBD"/>
<path d="M544.875 75.8C544.875 71.3196 544.875 69.0794 545.747 67.3681C546.514 65.8628 547.738 64.6389 549.243 63.8719C550.954 63 553.195 63 557.675 63H560.075C564.555 63 566.796 63 568.507 63.8719C570.012 64.6389 571.236 65.8628 572.003 67.3681C572.875 69.0794 572.875 71.3196 572.875 75.8V84H544.875V75.8Z" fill="#1C1C1C"/>
<rect x="544.875" y="84" width="28" height="21" fill="#1C1C1C"/>
<rect x="544.875" y="105" width="28" height="21" fill="#1C1C1C"/>
<rect x="544.875" y="126" width="28" height="21" fill="#1C1C1C"/>
<path d="M544.875 147H572.875V155.2C572.875 159.68 572.875 161.921 572.003 163.632C571.236 165.137 570.012 166.361 568.507 167.128C566.796 168 564.555 168 560.075 168H557.675C553.195 168 550.954 168 549.243 167.128C547.738 166.361 546.514 165.137 545.747 163.632C544.875 161.921 544.875 159.68 544.875 155.2V147Z" fill="#1C1C1C"/>
<path d="M610.625 12.8C610.625 8.31958 610.625 6.07937 611.497 4.36808C612.264 2.86278 613.488 1.63893 614.993 0.871948C616.704 0 618.945 0 623.425 0H625.825C630.305 0 632.546 0 634.257 0.871948C635.762 1.63893 636.986 2.86278 637.753 4.36808C638.625 6.07937 638.625 8.31958 638.625 12.8V21H610.625V12.8Z" fill="#B1E3FF"/>
<rect x="610.625" y="21" width="28" height="21" fill="#B1E3FF"/>
<rect x="610.625" y="42" width="28" height="21" fill="#B1E3FF"/>
<rect x="610.625" y="63" width="28" height="21" fill="#B1E3FF"/>
<rect x="610.625" y="84" width="28" height="21" fill="#B1E3FF"/>
<rect x="610.625" y="105" width="28" height="21" fill="#B1E3FF"/>
<rect x="610.625" y="126" width="28" height="21" fill="#B1E3FF"/>
<path d="M610.625 147H638.625V155.2C638.625 159.68 638.625 161.921 637.753 163.632C636.986 165.137 635.762 166.361 634.257 167.128C632.546 168 630.305 168 625.825 168H623.425C618.945 168 616.704 168 614.993 167.128C613.488 166.361 612.264 165.137 611.497 163.632C610.625 161.921 610.625 159.68 610.625 155.2V147Z" fill="#B1E3FF"/>
<path d="M676.375 117.8C676.375 113.32 676.375 111.079 677.247 109.368C678.014 107.863 679.238 106.639 680.743 105.872C682.454 105 684.695 105 689.175 105H691.575C696.055 105 698.296 105 700.007 105.872C701.512 106.639 702.736 107.863 703.503 109.368C704.375 111.079 704.375 113.32 704.375 117.8V126H676.375V117.8Z" fill="#A8C5DA"/>
<rect x="676.375" y="126" width="28" height="21" fill="#A8C5DA"/>
<path d="M676.375 147H704.375V155.2C704.375 159.68 704.375 161.921 703.503 163.632C702.736 165.137 701.512 166.361 700.007 167.128C698.296 168 696.055 168 691.575 168H689.175C684.695 168 682.454 168 680.743 167.128C679.238 166.361 678.014 165.137 677.247 163.632C676.375 161.921 676.375 159.68 676.375 155.2V147Z" fill="#A8C5DA"/>
<path d="M742.125 54.8C742.125 50.3196 742.125 48.0794 742.997 46.3681C743.764 44.8628 744.988 43.6389 746.493 42.8719C748.204 42 750.445 42 754.925 42H757.325C761.805 42 764.046 42 765.757 42.8719C767.262 43.6389 768.486 44.8628 769.253 46.3681C770.125 48.0794 770.125 50.3196 770.125 54.8V63H742.125V54.8Z" fill="#A1E3CB"/>
<rect x="742.125" y="63" width="28" height="21" fill="#A1E3CB"/>
<rect x="742.125" y="84" width="28" height="21" fill="#A1E3CB"/>
<rect x="742.125" y="105" width="28" height="21" fill="#A1E3CB"/>
<rect x="742.125" y="126" width="28" height="21" fill="#A1E3CB"/>
<path d="M742.125 147H770.125V155.2C770.125 159.68 770.125 161.921 769.253 163.632C768.486 165.137 767.262 166.361 765.757 167.128C764.046 168 761.805 168 757.325 168H754.925C750.445 168 748.204 168 746.493 167.128C744.988 166.361 743.764 165.137 742.997 163.632C742.125 161.921 742.125 159.68 742.125 155.2V147Z" fill="#A1E3CB"/>
</svg>
