<svg width="344" height="196" viewBox="0 0 344 196" fill="none" xmlns="http://www.w3.org/2000/svg">
<path d="M14.6883 191V182.273H15.7451V190.062H19.802V191H14.6883ZM21.302 191V184.455H22.3076V191H21.302ZM21.8133 183.364C21.6173 183.364 21.4483 183.297 21.3062 183.163C21.167 183.03 21.0974 182.869 21.0974 182.682C21.0974 182.494 21.167 182.334 21.3062 182.2C21.4483 182.067 21.6173 182 21.8133 182C22.0094 182 22.177 182.067 22.3162 182.2C22.4582 182.334 22.5292 182.494 22.5292 182.682C22.5292 182.869 22.4582 183.03 22.3162 183.163C22.177 183.297 22.0094 183.364 21.8133 183.364ZM25.1553 187.062V191H24.1496V184.455H25.1212V185.477H25.2064C25.3598 185.145 25.5928 184.878 25.9053 184.676C26.2178 184.472 26.6212 184.369 27.1155 184.369C27.5587 184.369 27.9465 184.46 28.2789 184.642C28.6113 184.821 28.8698 185.094 29.0545 185.46C29.2391 185.824 29.3314 186.284 29.3314 186.841V191H28.3258V186.909C28.3258 186.395 28.1922 185.994 27.9252 185.707C27.6581 185.418 27.2917 185.273 26.8258 185.273C26.5047 185.273 26.2178 185.342 25.965 185.482C25.715 185.621 25.5175 185.824 25.3726 186.091C25.2277 186.358 25.1553 186.682 25.1553 187.062ZM35.2942 188.324V184.455H36.2998V191H35.2942V189.892H35.226C35.0726 190.224 34.8339 190.507 34.5101 190.74C34.1862 190.97 33.7771 191.085 33.2828 191.085C32.8737 191.085 32.5101 190.996 32.1919 190.817C31.8737 190.635 31.6237 190.362 31.4419 189.999C31.2601 189.632 31.1692 189.17 31.1692 188.614V184.455H32.1748V188.545C32.1748 189.023 32.3084 189.403 32.5754 189.688C32.8453 189.972 33.189 190.114 33.6067 190.114C33.8567 190.114 34.1109 190.05 34.3694 189.922C34.6308 189.794 34.8495 189.598 35.0257 189.334C35.2047 189.07 35.2942 188.733 35.2942 188.324ZM38.8918 184.455L40.46 187.131L42.0282 184.455H43.1873L41.0736 187.727L43.1873 191H42.0282L40.46 188.46L38.8918 191H37.7327L39.8123 187.727L37.7327 184.455H38.8918Z" fill="#1C1C1C" fill-opacity="0.4"/>
<path d="M74.6408 182.273H75.9022L78.8681 189.517H78.9703L81.9363 182.273H83.1976V191H82.209V184.369H82.1238L79.3965 191H78.4419L75.7147 184.369H75.6294V191H74.6408V182.273ZM87.6518 191.136C87.1064 191.136 86.6248 190.999 86.2072 190.723C85.7896 190.445 85.4629 190.053 85.2271 189.547C84.9913 189.038 84.8734 188.438 84.8734 187.744C84.8734 187.057 84.9913 186.46 85.2271 185.955C85.4629 185.449 85.791 185.058 86.2115 184.783C86.6319 184.507 87.1177 184.369 87.6689 184.369C88.095 184.369 88.4316 184.44 88.6788 184.582C88.9288 184.722 89.1191 184.881 89.2498 185.06C89.3833 185.236 89.487 185.381 89.5609 185.494H89.6461V184.455H90.6518V191H89.6802V189.994H89.5609C89.487 190.114 89.3819 190.264 89.2456 190.446C89.1092 190.625 88.9146 190.786 88.6617 190.928C88.4089 191.067 88.0723 191.136 87.6518 191.136ZM87.7882 190.233C88.1916 190.233 88.5325 190.128 88.8109 189.918C89.0893 189.705 89.301 189.411 89.4458 189.036C89.5907 188.658 89.6632 188.222 89.6632 187.727C89.6632 187.239 89.5921 186.811 89.4501 186.445C89.3081 186.075 89.0978 185.788 88.8194 185.584C88.541 185.376 88.1973 185.273 87.7882 185.273C87.362 185.273 87.0069 185.382 86.7228 185.601C86.4416 185.817 86.2299 186.111 86.0879 186.483C85.9487 186.852 85.8791 187.267 85.8791 187.727C85.8791 188.193 85.9501 188.616 86.0921 188.997C86.237 189.375 86.4501 189.676 86.7314 189.901C87.0154 190.122 87.3677 190.233 87.7882 190.233ZM95.2924 191.136C94.6788 191.136 94.1504 190.991 93.7072 190.702C93.264 190.412 92.9231 190.013 92.6845 189.504C92.4458 188.996 92.3265 188.415 92.3265 187.761C92.3265 187.097 92.4487 186.51 92.693 186.001C92.9402 185.49 93.2839 185.091 93.7242 184.804C94.1674 184.514 94.6845 184.369 95.2754 184.369C95.7356 184.369 96.1504 184.455 96.5197 184.625C96.889 184.795 97.1916 185.034 97.4274 185.341C97.6632 185.648 97.8095 186.006 97.8663 186.415H96.8606C96.7839 186.116 96.6135 185.852 96.3492 185.622C96.0879 185.389 95.7356 185.273 95.2924 185.273C94.9004 185.273 94.5566 185.375 94.2612 185.58C93.9686 185.781 93.7399 186.067 93.5751 186.436C93.4132 186.803 93.3322 187.233 93.3322 187.727C93.3322 188.233 93.4117 188.673 93.5708 189.048C93.7328 189.423 93.96 189.714 94.2527 189.922C94.5481 190.129 94.8947 190.233 95.2924 190.233C95.5538 190.233 95.791 190.188 96.0041 190.097C96.2171 190.006 96.3975 189.875 96.5453 189.705C96.693 189.534 96.7981 189.33 96.8606 189.091H97.8663C97.8095 189.477 97.6688 189.825 97.4444 190.135C97.2228 190.442 96.9288 190.686 96.5623 190.868C96.1987 191.047 95.7754 191.136 95.2924 191.136Z" fill="#1C1C1C" fill-opacity="0.4"/>
<path d="M134.433 191V184.455H135.439V191H134.433ZM134.945 183.364C134.749 183.364 134.58 183.297 134.438 183.163C134.299 183.03 134.229 182.869 134.229 182.682C134.229 182.494 134.299 182.334 134.438 182.2C134.58 182.067 134.749 182 134.945 182C135.141 182 135.308 182.067 135.448 182.2C135.59 182.334 135.661 182.494 135.661 182.682C135.661 182.869 135.59 183.03 135.448 183.163C135.308 183.297 135.141 183.364 134.945 183.364ZM144.781 186.636C144.781 187.557 144.615 188.352 144.283 189.023C143.95 189.693 143.494 190.21 142.915 190.574C142.335 190.938 141.673 191.119 140.929 191.119C140.185 191.119 139.523 190.938 138.943 190.574C138.364 190.21 137.908 189.693 137.575 189.023C137.243 188.352 137.077 187.557 137.077 186.636C137.077 185.716 137.243 184.92 137.575 184.25C137.908 183.58 138.364 183.062 138.943 182.699C139.523 182.335 140.185 182.153 140.929 182.153C141.673 182.153 142.335 182.335 142.915 182.699C143.494 183.062 143.95 183.58 144.283 184.25C144.615 184.92 144.781 185.716 144.781 186.636ZM143.758 186.636C143.758 185.881 143.632 185.243 143.379 184.723C143.129 184.203 142.79 183.81 142.361 183.543C141.935 183.276 141.457 183.142 140.929 183.142C140.4 183.142 139.922 183.276 139.493 183.543C139.067 183.81 138.727 184.203 138.474 184.723C138.224 185.243 138.099 185.881 138.099 186.636C138.099 187.392 138.224 188.03 138.474 188.55C138.727 189.07 139.067 189.463 139.493 189.73C139.922 189.997 140.4 190.131 140.929 190.131C141.457 190.131 141.935 189.997 142.361 189.73C142.79 189.463 143.129 189.07 143.379 188.55C143.632 188.03 143.758 187.392 143.758 186.636ZM151.331 184.455C151.28 184.023 151.072 183.688 150.709 183.449C150.345 183.21 149.899 183.091 149.371 183.091C148.984 183.091 148.646 183.153 148.356 183.278C148.069 183.403 147.845 183.575 147.683 183.794C147.524 184.013 147.444 184.261 147.444 184.54C147.444 184.773 147.5 184.973 147.611 185.141C147.724 185.305 147.869 185.443 148.045 185.554C148.221 185.662 148.406 185.751 148.599 185.822C148.792 185.891 148.97 185.946 149.132 185.989L150.018 186.227C150.246 186.287 150.498 186.369 150.777 186.474C151.058 186.58 151.327 186.723 151.582 186.905C151.841 187.084 152.054 187.314 152.221 187.595C152.389 187.876 152.473 188.222 152.473 188.631C152.473 189.102 152.349 189.528 152.102 189.909C151.858 190.29 151.5 190.592 151.028 190.817C150.56 191.041 149.99 191.153 149.319 191.153C148.694 191.153 148.153 191.053 147.696 190.851C147.241 190.649 146.883 190.368 146.622 190.007C146.364 189.646 146.217 189.227 146.183 188.75H147.274C147.302 189.08 147.413 189.352 147.606 189.568C147.802 189.781 148.05 189.94 148.348 190.045C148.649 190.148 148.973 190.199 149.319 190.199C149.723 190.199 150.085 190.134 150.406 190.003C150.727 189.869 150.981 189.685 151.169 189.449C151.356 189.21 151.45 188.932 151.45 188.614C151.45 188.324 151.369 188.088 151.207 187.906C151.045 187.724 150.832 187.577 150.568 187.463C150.304 187.349 150.018 187.25 149.712 187.165L148.638 186.858C147.956 186.662 147.416 186.382 147.018 186.018C146.621 185.655 146.422 185.179 146.422 184.591C146.422 184.102 146.554 183.676 146.818 183.312C147.085 182.946 147.443 182.662 147.892 182.46C148.344 182.256 148.848 182.153 149.405 182.153C149.967 182.153 150.467 182.254 150.905 182.456C151.342 182.655 151.689 182.928 151.944 183.274C152.203 183.621 152.339 184.014 152.354 184.455H151.331Z" fill="#1C1C1C" fill-opacity="0.4"/>
<path d="M177.475 191L175.088 182.273H176.162L177.986 189.381H178.071L179.929 182.273H181.122L182.98 189.381H183.066L184.889 182.273H185.963L183.577 191H182.486L180.56 184.045H180.492L178.566 191H177.475ZM187.144 191V184.455H188.149V191H187.144ZM187.655 183.364C187.459 183.364 187.29 183.297 187.148 183.163C187.009 183.03 186.939 182.869 186.939 182.682C186.939 182.494 187.009 182.334 187.148 182.2C187.29 182.067 187.459 182 187.655 182C187.851 182 188.019 182.067 188.158 182.2C188.3 182.334 188.371 182.494 188.371 182.682C188.371 182.869 188.3 183.03 188.158 183.163C188.019 183.297 187.851 183.364 187.655 183.364ZM190.997 187.062V191H189.991V184.455H190.963V185.477H191.048C191.202 185.145 191.435 184.878 191.747 184.676C192.06 184.472 192.463 184.369 192.957 184.369C193.401 184.369 193.788 184.46 194.121 184.642C194.453 184.821 194.712 185.094 194.896 185.46C195.081 185.824 195.173 186.284 195.173 186.841V191H194.168V186.909C194.168 186.395 194.034 185.994 193.767 185.707C193.5 185.418 193.133 185.273 192.668 185.273C192.347 185.273 192.06 185.342 191.807 185.482C191.557 185.621 191.359 185.824 191.214 186.091C191.07 186.358 190.997 186.682 190.997 187.062ZM199.483 191.136C198.937 191.136 198.456 190.999 198.038 190.723C197.62 190.445 197.294 190.053 197.058 189.547C196.822 189.038 196.704 188.438 196.704 187.744C196.704 187.057 196.822 186.46 197.058 185.955C197.294 185.449 197.622 185.058 198.042 184.783C198.463 184.507 198.948 184.369 199.5 184.369C199.926 184.369 200.262 184.44 200.51 184.582C200.76 184.722 200.95 184.881 201.081 185.06C201.214 185.236 201.318 185.381 201.392 185.494H201.477V182.273H202.483V191H201.511V189.994H201.392C201.318 190.114 201.213 190.264 201.076 190.446C200.94 190.625 200.745 190.786 200.492 190.928C200.24 191.067 199.903 191.136 199.483 191.136ZM199.619 190.233C200.022 190.233 200.363 190.128 200.642 189.918C200.92 189.705 201.132 189.411 201.277 189.036C201.421 188.658 201.494 188.222 201.494 187.727C201.494 187.239 201.423 186.811 201.281 186.445C201.139 186.075 200.929 185.788 200.65 185.584C200.372 185.376 200.028 185.273 199.619 185.273C199.193 185.273 198.838 185.382 198.554 185.601C198.272 185.817 198.061 186.111 197.919 186.483C197.779 186.852 197.71 187.267 197.71 187.727C197.71 188.193 197.781 188.616 197.923 188.997C198.068 189.375 198.281 189.676 198.562 189.901C198.846 190.122 199.198 190.233 199.619 190.233ZM207.123 191.136C206.532 191.136 206.014 190.996 205.568 190.714C205.125 190.433 204.778 190.04 204.528 189.534C204.281 189.028 204.157 188.437 204.157 187.761C204.157 187.08 204.281 186.484 204.528 185.976C204.778 185.467 205.125 185.072 205.568 184.791C206.014 184.51 206.532 184.369 207.123 184.369C207.714 184.369 208.231 184.51 208.674 184.791C209.12 185.072 209.467 185.467 209.714 185.976C209.964 186.484 210.089 187.08 210.089 187.761C210.089 188.437 209.964 189.028 209.714 189.534C209.467 190.04 209.12 190.433 208.674 190.714C208.231 190.996 207.714 191.136 207.123 191.136ZM207.123 190.233C207.572 190.233 207.941 190.118 208.231 189.888C208.521 189.658 208.735 189.355 208.875 188.98C209.014 188.605 209.083 188.199 209.083 187.761C209.083 187.324 209.014 186.916 208.875 186.538C208.735 186.161 208.521 185.855 208.231 185.622C207.941 185.389 207.572 185.273 207.123 185.273C206.674 185.273 206.305 185.389 206.015 185.622C205.725 185.855 205.511 186.161 205.372 186.538C205.233 186.916 205.163 187.324 205.163 187.761C205.163 188.199 205.233 188.605 205.372 188.98C205.511 189.355 205.725 189.658 206.015 189.888C206.305 190.118 206.674 190.233 207.123 190.233ZM212.885 191L210.89 184.455H211.947L213.362 189.466H213.43L214.828 184.455H215.902L217.282 189.449H217.35L218.765 184.455H219.822L217.828 191H216.839L215.407 185.972H215.305L213.873 191H212.885ZM225.788 185.92L224.885 186.176C224.828 186.026 224.744 185.879 224.633 185.737C224.525 185.592 224.377 185.473 224.19 185.379C224.002 185.286 223.762 185.239 223.47 185.239C223.069 185.239 222.735 185.331 222.468 185.516C222.204 185.697 222.072 185.929 222.072 186.21C222.072 186.46 222.163 186.658 222.345 186.803C222.527 186.947 222.811 187.068 223.197 187.165L224.169 187.403C224.754 187.545 225.19 187.763 225.477 188.055C225.764 188.345 225.907 188.719 225.907 189.176C225.907 189.551 225.799 189.886 225.583 190.182C225.37 190.477 225.072 190.71 224.689 190.881C224.305 191.051 223.859 191.136 223.35 191.136C222.683 191.136 222.13 190.991 221.693 190.702C221.255 190.412 220.978 189.989 220.862 189.432L221.816 189.193C221.907 189.545 222.079 189.81 222.332 189.986C222.588 190.162 222.921 190.25 223.333 190.25C223.802 190.25 224.174 190.151 224.45 189.952C224.728 189.75 224.867 189.509 224.867 189.227C224.867 189 224.788 188.81 224.629 188.656C224.47 188.5 224.225 188.384 223.896 188.307L222.805 188.051C222.206 187.909 221.765 187.689 221.484 187.391C221.206 187.089 221.066 186.713 221.066 186.261C221.066 185.892 221.17 185.565 221.377 185.281C221.588 184.997 221.873 184.774 222.234 184.612C222.598 184.45 223.01 184.369 223.47 184.369C224.117 184.369 224.626 184.511 224.995 184.795C225.367 185.08 225.632 185.455 225.788 185.92Z" fill="#1C1C1C" fill-opacity="0.4"/>
<path d="M237.26 191H236.153L239.357 182.273H240.448L243.653 191H242.545L239.937 183.653H239.868L237.26 191ZM237.67 187.591H242.135V188.528H237.67V187.591ZM245.881 187.062V191H244.876V184.455H245.847V185.477H245.932C246.086 185.145 246.319 184.878 246.631 184.676C246.944 184.472 247.347 184.369 247.841 184.369C248.285 184.369 248.672 184.46 249.005 184.642C249.337 184.821 249.596 185.094 249.78 185.46C249.965 185.824 250.057 186.284 250.057 186.841V191H249.052V186.909C249.052 186.395 248.918 185.994 248.651 185.707C248.384 185.418 248.018 185.273 247.552 185.273C247.231 185.273 246.944 185.342 246.691 185.482C246.441 185.621 246.243 185.824 246.099 186.091C245.954 186.358 245.881 186.682 245.881 187.062ZM254.367 191.136C253.821 191.136 253.34 190.999 252.922 190.723C252.504 190.445 252.178 190.053 251.942 189.547C251.706 189.038 251.588 188.438 251.588 187.744C251.588 187.057 251.706 186.46 251.942 185.955C252.178 185.449 252.506 185.058 252.926 184.783C253.347 184.507 253.833 184.369 254.384 184.369C254.81 184.369 255.146 184.44 255.394 184.582C255.644 184.722 255.834 184.881 255.965 185.06C256.098 185.236 256.202 185.381 256.276 185.494H256.361V182.273H257.367V191H256.395V189.994H256.276C256.202 190.114 256.097 190.264 255.96 190.446C255.824 190.625 255.629 190.786 255.377 190.928C255.124 191.067 254.787 191.136 254.367 191.136ZM254.503 190.233C254.906 190.233 255.247 190.128 255.526 189.918C255.804 189.705 256.016 189.411 256.161 189.036C256.306 188.658 256.378 188.222 256.378 187.727C256.378 187.239 256.307 186.811 256.165 186.445C256.023 186.075 255.813 185.788 255.534 185.584C255.256 185.376 254.912 185.273 254.503 185.273C254.077 185.273 253.722 185.382 253.438 185.601C253.156 185.817 252.945 186.111 252.803 186.483C252.664 186.852 252.594 187.267 252.594 187.727C252.594 188.193 252.665 188.616 252.807 188.997C252.952 189.375 253.165 189.676 253.446 189.901C253.73 190.122 254.083 190.233 254.503 190.233ZM259.348 191V184.455H260.32V185.443H260.388C260.507 185.119 260.723 184.857 261.036 184.655C261.348 184.453 261.7 184.352 262.092 184.352C262.166 184.352 262.259 184.354 262.369 184.357C262.48 184.359 262.564 184.364 262.621 184.369V185.392C262.587 185.384 262.509 185.371 262.387 185.354C262.267 185.334 262.141 185.324 262.007 185.324C261.689 185.324 261.405 185.391 261.155 185.524C260.908 185.655 260.712 185.837 260.567 186.07C260.425 186.3 260.354 186.562 260.354 186.858V191H259.348ZM266.273 191.136C265.682 191.136 265.164 190.996 264.717 190.714C264.274 190.433 263.928 190.04 263.678 189.534C263.431 189.028 263.307 188.437 263.307 187.761C263.307 187.08 263.431 186.484 263.678 185.976C263.928 185.467 264.274 185.072 264.717 184.791C265.164 184.51 265.682 184.369 266.273 184.369C266.864 184.369 267.381 184.51 267.824 184.791C268.27 185.072 268.617 185.467 268.864 185.976C269.114 186.484 269.239 187.08 269.239 187.761C269.239 188.437 269.114 189.028 268.864 189.534C268.617 190.04 268.27 190.433 267.824 190.714C267.381 190.996 266.864 191.136 266.273 191.136ZM266.273 190.233C266.722 190.233 267.091 190.118 267.381 189.888C267.671 189.658 267.885 189.355 268.024 188.98C268.164 188.605 268.233 188.199 268.233 187.761C268.233 187.324 268.164 186.916 268.024 186.538C267.885 186.161 267.671 185.855 267.381 185.622C267.091 185.389 266.722 185.273 266.273 185.273C265.824 185.273 265.455 185.389 265.165 185.622C264.875 185.855 264.661 186.161 264.521 186.538C264.382 186.916 264.313 187.324 264.313 187.761C264.313 188.199 264.382 188.605 264.521 188.98C264.661 189.355 264.875 189.658 265.165 189.888C265.455 190.118 265.824 190.233 266.273 190.233ZM270.774 191V184.455H271.78V191H270.774ZM271.285 183.364C271.089 183.364 270.92 183.297 270.778 183.163C270.639 183.03 270.569 182.869 270.569 182.682C270.569 182.494 270.639 182.334 270.778 182.2C270.92 182.067 271.089 182 271.285 182C271.481 182 271.649 182.067 271.788 182.2C271.93 182.334 272.001 182.494 272.001 182.682C272.001 182.869 271.93 183.03 271.788 183.163C271.649 183.297 271.481 183.364 271.285 183.364ZM276.093 191.136C275.548 191.136 275.066 190.999 274.649 190.723C274.231 190.445 273.904 190.053 273.668 189.547C273.433 189.038 273.315 188.438 273.315 187.744C273.315 187.057 273.433 186.46 273.668 185.955C273.904 185.449 274.232 185.058 274.653 184.783C275.073 184.507 275.559 184.369 276.11 184.369C276.536 184.369 276.873 184.44 277.12 184.582C277.37 184.722 277.561 184.881 277.691 185.06C277.825 185.236 277.928 185.381 278.002 185.494H278.088V182.273H279.093V191H278.122V189.994H278.002C277.928 190.114 277.823 190.264 277.687 190.446C277.551 190.625 277.356 190.786 277.103 190.928C276.85 191.067 276.514 191.136 276.093 191.136ZM276.23 190.233C276.633 190.233 276.974 190.128 277.252 189.918C277.531 189.705 277.742 189.411 277.887 189.036C278.032 188.658 278.105 188.222 278.105 187.727C278.105 187.239 278.034 186.811 277.891 186.445C277.749 186.075 277.539 185.788 277.261 185.584C276.982 185.376 276.639 185.273 276.23 185.273C275.803 185.273 275.448 185.382 275.164 185.601C274.883 185.817 274.671 186.111 274.529 186.483C274.39 186.852 274.32 187.267 274.32 187.727C274.32 188.193 274.391 188.616 274.534 188.997C274.678 189.375 274.891 189.676 275.173 189.901C275.457 190.122 275.809 190.233 276.23 190.233Z" fill="#1C1C1C" fill-opacity="0.4"/>
<path d="M307.664 186.636C307.664 187.557 307.498 188.352 307.165 189.023C306.833 189.693 306.377 190.21 305.797 190.574C305.218 190.938 304.556 191.119 303.812 191.119C303.067 191.119 302.405 190.938 301.826 190.574C301.246 190.21 300.79 189.693 300.458 189.023C300.126 188.352 299.959 187.557 299.959 186.636C299.959 185.716 300.126 184.92 300.458 184.25C300.79 183.58 301.246 183.062 301.826 182.699C302.405 182.335 303.067 182.153 303.812 182.153C304.556 182.153 305.218 182.335 305.797 182.699C306.377 183.062 306.833 183.58 307.165 184.25C307.498 184.92 307.664 185.716 307.664 186.636ZM306.641 186.636C306.641 185.881 306.515 185.243 306.262 184.723C306.012 184.203 305.672 183.81 305.243 183.543C304.817 183.276 304.34 183.142 303.812 183.142C303.283 183.142 302.805 183.276 302.376 183.543C301.949 183.81 301.61 184.203 301.357 184.723C301.107 185.243 300.982 185.881 300.982 186.636C300.982 187.392 301.107 188.03 301.357 188.55C301.61 189.07 301.949 189.463 302.376 189.73C302.805 189.997 303.283 190.131 303.812 190.131C304.34 190.131 304.817 189.997 305.243 189.73C305.672 189.463 306.012 189.07 306.262 188.55C306.515 188.03 306.641 187.392 306.641 186.636ZM312.151 184.455V185.307H308.759V184.455H312.151ZM309.748 182.886H310.753V189.125C310.753 189.409 310.795 189.622 310.877 189.764C310.962 189.903 311.07 189.997 311.201 190.045C311.334 190.091 311.475 190.114 311.623 190.114C311.734 190.114 311.824 190.108 311.895 190.097C311.966 190.082 312.023 190.071 312.066 190.062L312.27 190.966C312.202 190.991 312.107 191.017 311.985 191.043C311.863 191.071 311.708 191.085 311.52 191.085C311.236 191.085 310.958 191.024 310.685 190.902C310.415 190.78 310.191 190.594 310.012 190.344C309.836 190.094 309.748 189.778 309.748 189.398V182.886ZM314.81 187.062V191H313.805V182.273H314.81V185.477H314.895C315.049 185.139 315.279 184.871 315.586 184.672C315.895 184.47 316.307 184.369 316.822 184.369C317.268 184.369 317.658 184.459 317.993 184.638C318.329 184.814 318.589 185.085 318.773 185.452C318.961 185.815 319.055 186.278 319.055 186.841V191H318.049V186.909C318.049 186.389 317.914 185.987 317.644 185.703C317.377 185.416 317.006 185.273 316.532 185.273C316.202 185.273 315.907 185.342 315.645 185.482C315.387 185.621 315.182 185.824 315.032 186.091C314.884 186.358 314.81 186.682 314.81 187.062ZM323.639 191.136C323.008 191.136 322.464 190.997 322.007 190.719C321.552 190.438 321.201 190.045 320.954 189.543C320.71 189.037 320.588 188.449 320.588 187.778C320.588 187.108 320.71 186.517 320.954 186.006C321.201 185.491 321.545 185.091 321.985 184.804C322.428 184.514 322.946 184.369 323.536 184.369C323.877 184.369 324.214 184.426 324.546 184.54C324.879 184.653 325.181 184.838 325.454 185.094C325.727 185.347 325.944 185.682 326.106 186.099C326.268 186.517 326.349 187.031 326.349 187.642V188.068H321.303V187.199H325.326C325.326 186.83 325.252 186.5 325.105 186.21C324.96 185.92 324.752 185.692 324.482 185.524C324.215 185.357 323.9 185.273 323.536 185.273C323.136 185.273 322.789 185.372 322.497 185.571C322.207 185.767 321.984 186.023 321.828 186.338C321.671 186.653 321.593 186.991 321.593 187.352V187.932C321.593 188.426 321.678 188.845 321.849 189.189C322.022 189.53 322.262 189.79 322.569 189.969C322.876 190.145 323.232 190.233 323.639 190.233C323.903 190.233 324.142 190.196 324.355 190.122C324.571 190.045 324.757 189.932 324.913 189.781C325.069 189.628 325.19 189.437 325.275 189.21L326.247 189.483C326.144 189.812 325.973 190.102 325.731 190.352C325.49 190.599 325.191 190.793 324.836 190.932C324.481 191.068 324.082 191.136 323.639 191.136ZM327.879 191V184.455H328.85V185.443H328.919C329.038 185.119 329.254 184.857 329.566 184.655C329.879 184.453 330.231 184.352 330.623 184.352C330.697 184.352 330.789 184.354 330.9 184.357C331.011 184.359 331.095 184.364 331.152 184.369V185.392C331.117 185.384 331.039 185.371 330.917 185.354C330.798 185.334 330.671 185.324 330.538 185.324C330.22 185.324 329.936 185.391 329.686 185.524C329.438 185.655 329.242 185.837 329.098 186.07C328.955 186.3 328.884 186.562 328.884 186.858V191H327.879Z" fill="#1C1C1C" fill-opacity="0.4"/>
<path d="M14.6667 96.8C14.6667 92.3196 14.6667 90.0794 15.5386 88.3681C16.3056 86.8628 17.5294 85.6389 19.0347 84.8719C20.746 84 22.9862 84 27.4667 84H29.8667C34.3471 84 36.5873 84 38.2986 84.8719C39.8039 85.6389 41.0277 86.8628 41.7947 88.3681C42.6667 90.0794 42.6667 92.3196 42.6667 96.8V105H14.6667V96.8Z" fill="#95A4FC"/>
<rect x="14.6667" y="105" width="28" height="21" fill="#95A4FC"/>
<rect x="14.6667" y="126" width="28" height="21" fill="#95A4FC"/>
<path d="M14.6667 147H42.6667V155.2C42.6667 159.68 42.6667 161.921 41.7947 163.632C41.0277 165.137 39.8039 166.361 38.2986 167.128C36.5873 168 34.3471 168 29.8667 168H27.4667C22.9862 168 20.746 168 19.0347 167.128C17.5294 166.361 16.3056 165.137 15.5386 163.632C14.6667 161.921 14.6667 159.68 14.6667 155.2V147Z" fill="#95A4FC"/>
<path d="M72 33.8C72 29.3196 72 27.0794 72.8719 25.3681C73.6389 23.8628 74.8628 22.6389 76.3681 21.8719C78.0794 21 80.3196 21 84.8 21H87.2C91.6804 21 93.9206 21 95.6319 21.8719C97.1372 22.6389 98.3611 23.8628 99.1281 25.3681C100 27.0794 100 29.3196 100 33.8V42H72V33.8Z" fill="#BAEDBD"/>
<rect x="72" y="42" width="28" height="21" fill="#BAEDBD"/>
<rect x="72" y="63" width="28" height="21" fill="#BAEDBD"/>
<rect x="72" y="84" width="28" height="21" fill="#BAEDBD"/>
<rect x="72" y="105" width="28" height="21" fill="#BAEDBD"/>
<rect x="72" y="126" width="28" height="21" fill="#BAEDBD"/>
<path d="M72 147H100V155.2C100 159.68 100 161.921 99.1281 163.632C98.3611 165.137 97.1372 166.361 95.6319 167.128C93.9206 168 91.6804 168 87.2 168H84.8C80.3196 168 78.0794 168 76.3681 167.128C74.8628 166.361 73.6389 165.137 72.8719 163.632C72 161.921 72 159.68 72 155.2V147Z" fill="#BAEDBD"/>
<path d="M129.333 75.8C129.333 71.3196 129.333 69.0794 130.205 67.3681C130.972 65.8628 132.196 64.6389 133.701 63.8719C135.413 63 137.653 63 142.133 63H144.533C149.014 63 151.254 63 152.965 63.8719C154.471 64.6389 155.694 65.8628 156.461 67.3681C157.333 69.0794 157.333 71.3196 157.333 75.8V84H129.333V75.8Z" fill="#1C1C1C"/>
<rect x="129.333" y="84" width="28" height="21" fill="#1C1C1C"/>
<rect x="129.333" y="105" width="28" height="21" fill="#1C1C1C"/>
<rect x="129.333" y="126" width="28" height="21" fill="#1C1C1C"/>
<path d="M129.333 147H157.333V155.2C157.333 159.68 157.333 161.921 156.461 163.632C155.694 165.137 154.471 166.361 152.965 167.128C151.254 168 149.014 168 144.533 168H142.133C137.653 168 135.413 168 133.701 167.128C132.196 166.361 130.972 165.137 130.205 163.632C129.333 161.921 129.333 159.68 129.333 155.2V147Z" fill="#1C1C1C"/>
<path d="M186.667 12.8C186.667 8.31958 186.667 6.07937 187.539 4.36808C188.306 2.86278 189.529 1.63893 191.035 0.871948C192.746 0 194.986 0 199.467 0H201.867C206.347 0 208.587 0 210.299 0.871948C211.804 1.63893 213.028 2.86278 213.795 4.36808C214.667 6.07937 214.667 8.31958 214.667 12.8V21H186.667V12.8Z" fill="#B1E3FF"/>
<rect x="186.667" y="21" width="28" height="21" fill="#B1E3FF"/>
<rect x="186.667" y="42" width="28" height="21" fill="#B1E3FF"/>
<rect x="186.667" y="63" width="28" height="21" fill="#B1E3FF"/>
<rect x="186.667" y="84" width="28" height="21" fill="#B1E3FF"/>
<rect x="186.667" y="105" width="28" height="21" fill="#B1E3FF"/>
<rect x="186.667" y="126" width="28" height="21" fill="#B1E3FF"/>
<path d="M186.667 147H214.667V155.2C214.667 159.68 214.667 161.921 213.795 163.632C213.028 165.137 211.804 166.361 210.299 167.128C208.587 168 206.347 168 201.867 168H199.467C194.986 168 192.746 168 191.035 167.128C189.529 166.361 188.306 165.137 187.539 163.632C186.667 161.921 186.667 159.68 186.667 155.2V147Z" fill="#B1E3FF"/>
<path d="M244 117.8C244 113.32 244 111.079 244.872 109.368C245.639 107.863 246.863 106.639 248.368 105.872C250.079 105 252.32 105 256.8 105H259.2C263.68 105 265.921 105 267.632 105.872C269.137 106.639 270.361 107.863 271.128 109.368C272 111.079 272 113.32 272 117.8V126H244V117.8Z" fill="#A8C5DA"/>
<rect x="244" y="126" width="28" height="21" fill="#A8C5DA"/>
<path d="M244 147H272V155.2C272 159.68 272 161.921 271.128 163.632C270.361 165.137 269.137 166.361 267.632 167.128C265.921 168 263.68 168 259.2 168H256.8C252.32 168 250.079 168 248.368 167.128C246.863 166.361 245.639 165.137 244.872 163.632C244 161.921 244 159.68 244 155.2V147Z" fill="#A8C5DA"/>
<path d="M301.333 54.8C301.333 50.3196 301.333 48.0794 302.205 46.3681C302.972 44.8628 304.196 43.6389 305.701 42.8719C307.413 42 309.653 42 314.133 42H316.533C321.014 42 323.254 42 324.965 42.8719C326.471 43.6389 327.694 44.8628 328.461 46.3681C329.333 48.0794 329.333 50.3196 329.333 54.8V63H301.333V54.8Z" fill="#A1E3CB"/>
<rect x="301.333" y="63" width="28" height="21" fill="#A1E3CB"/>
<rect x="301.333" y="84" width="28" height="21" fill="#A1E3CB"/>
<rect x="301.333" y="105" width="28" height="21" fill="#A1E3CB"/>
<rect x="301.333" y="126" width="28" height="21" fill="#A1E3CB"/>
<path d="M301.333 147H329.333V155.2C329.333 159.68 329.333 161.921 328.461 163.632C327.694 165.137 326.471 166.361 324.965 167.128C323.254 168 321.014 168 316.533 168H314.133C309.653 168 307.413 168 305.701 167.128C304.196 166.361 302.972 165.137 302.205 163.632C301.333 161.921 301.333 159.68 301.333 155.2V147Z" fill="#A1E3CB"/>
</svg>
